<svg width="400" height="400" xmlns="http://www.w3.org/2000/svg" xmlns:xlink="http://www.w3.org/1999/xlink"><path fill="none" d="M-1-1h402v402H-1z"/><g transform="translate(-2134.968 -1475.65) scale(.88704)" stroke="null"><path fill="#90BC42" d="M2632.313 1692.075v37.95c-27.92 14.64-42.1 79.41-42.1 79.41-10.98-41.09-27.74-61.12-38.94-70.42 22.43-27.73 50.54-46.94 81.04-46.94z"/><path fill="#9AD14B" d="M2713.354 1739.015c-11.2 9.3-27.97 29.33-38.95 70.42 0 0-14.18-64.77-42.09-79.41v-37.95c30.49 0 58.6 19.21 81.04 46.94z"/><path fill="#9AD14B" d="M2743.513 1818.265c-3.46 1.83-7.08 3.96-10.77 6.43-16.4 10.95-34.07 28.55-44.57 56.39-.18.12-.36.25-.54.37-1.98-6.23-20.6-62.13-55.32-75.33-19.33 7.35-33.67 27.92-42.92 45.79-7.38 14.24-11.53 26.77-12.41 29.54-.18-.12-.36-.25-.54-.37-10.49-27.84-28.16-45.44-44.56-56.39-3.69-2.47-7.31-4.6-10.77-6.43-15.52-43.19 18.44-86.67 18.44-86.67s4.8 1.66 11.72 7.42c11.2 9.3 27.96 29.33 38.94 70.42 0 0 14.18-64.77 42.1-79.41 27.91 14.64 42.09 79.41 42.09 79.41 10.98-41.09 27.75-61.12 38.95-70.42 6.92-5.76 11.72-7.42 11.72-7.42s33.96 43.48 18.44 86.67z"/><path fill="#9AD14B" d="M2764.503 1861.096v.01c-1.75 6.21-3.91 12.67-6.58 19.21-21.33 9.15-50.22 27.68-65.18 63.75 0 0-20.37-59.92-60.43-73.46-15.96 5.39-28.79 18.14-38.44 31.53-14.62 20.23-21.99 41.93-21.99 41.93-14.96-36.08-43.86-54.61-65.19-63.76-2.66-6.53-4.82-12.98-6.57-19.18v-.01c-8.34-29.58-7.35-53.49-7.35-53.49s12.5 2.24 28.34 10.64c3.46 1.83 7.08 3.96 10.77 6.43 16.4 10.95 34.07 28.55 44.56 56.39.13.31.24.63.36.94 0 0 .06-.2.18-.57.66-2.09 3.19-9.75 7.57-19.51 8.69-19.38 24.66-47.04 47.76-55.82 34.72 13.2 53.34 69.1 55.32 75.33.12.37.18.57.18.57.12-.31.23-.63.36-.94 10.5-27.84 28.17-45.44 44.57-56.39 3.69-2.47 7.31-4.6 10.77-6.43 15.83-8.4 28.33-10.64 28.33-10.64s.99 23.909-7.34 53.47zm-99.19 162.769v62.12h-66v-62.12a158.54 158.54 0 0 0 66 0z"/><path fill="#90BC42" d="M2632.315 2023.865v62.12h-33.002v-62.12c10.87 4.63 22.127 4.63 33.002 0z"/><path fill="#9AD14B" d="M2697.773 2013.185a158.02 158.02 0 0 1-32.46 10.68c-10.7 2.27-21.57 3.43-32.45 3.47-11.25.04-22.5-1.12-33.55-3.47a158.02 158.02 0 0 1-32.46-10.68c-91.1-41.43-86.47-141.12-86.47-141.12s11.28 1.8 26.31 8.24c21.33 9.15 50.23 27.68 65.19 63.76 0 0 8.06-23.72 24.02-44.69 9.4-12.35 21.55-23.75 36.41-28.77 40.06 13.54 60.43 73.46 60.43 73.46 14.96-36.07 43.85-54.6 65.18-63.75 15.03-6.45 26.31-8.25 26.31-8.25s4.64 99.69-86.46 141.12z"/><path stroke="#333" fill="none" stroke-width="15" stroke-linejoin="round" stroke-miterlimit="10" d="M2747.523 1797.245v.02m-230.42-.03v-.01"/><path fill="#90BC42" d="M2632.864 2027.335c-11.25.04-22.5-1.12-33.55-3.47a158.02 158.02 0 0 1-32.46-10.68c-91.1-41.43-86.47-141.12-86.47-141.12s11.28 1.8 26.31 8.24c21.33 9.15 50.23 27.68 65.19 63.76 0 0 8.06-23.72 24.02-44.69l1.48 4.14s-22.5 76.49 34.49 122.99c.34.28.669.55.99.83z"/><path fill="#90BC42" d="M2593.874 1902.136c-14.62 20.23-21.99 41.93-21.99 41.93-14.96-36.08-43.86-54.61-65.19-63.76-2.66-6.53-4.82-12.98-6.57-19.18v-.01c-8.34-29.58-7.35-53.49-7.35-53.49s12.5 2.24 28.34 10.64c3.46 1.83 7.08 3.96 10.77 6.43 16.4 10.95 34.07 28.55 44.56 56.39.13.31.24.63.36.94 0 0 .06-.2.18-.57.66-2.09 3.19-9.75 7.57-19.51l.83 1.07s-3 22.5 7.5 36c.599.759.919 1.819.99 3.12z"/><path fill="#FFF" d="M2732.126 1966.357a7.5 7.5 0 0 1-5.82-12.226c8.226-10.138 14.787-22.071 19.502-35.471a139.791 139.791 0 0 0 4.159-14.225c.952-4.032 4.992-6.532 9.023-5.574a7.499 7.499 0 0 1 5.574 9.023 155.335 155.335 0 0 1-4.606 15.754c-5.29 15.027-12.691 28.466-22.004 39.943a7.476 7.476 0 0 1-5.828 2.776z"/><path fill="#90BC42" d="M2589.394 1851.915c-7.38 14.24-11.53 26.77-12.41 29.54-.18-.12-.36-.25-.54-.37-10.49-27.84-28.16-45.44-44.56-56.39-3.69-2.47-7.31-4.6-10.77-6.43-15.52-43.19 18.44-86.67 18.44-86.67s4.9 81.4 48.83 119.42c.349.3.679.6 1.01.9z"/><path fill="#FFF" d="M2741.642 1874.77a7.5 7.5 0 0 1-6.805-10.645c2.969-6.432 6.382-22.114 7.446-27.614.787-4.067 4.722-6.73 8.788-5.938a7.499 7.499 0 0 1 5.938 8.788c-.427 2.207-4.296 21.826-8.554 31.052a7.5 7.5 0 0 1-6.813 4.357zm-14.658-62.668l-.218-.003a7.5 7.5 0 0 1-7.283-7.711c.193-6.782-.656-13.93-2.526-21.241a7.5 7.5 0 0 1 5.407-9.124 7.494 7.494 0 0 1 9.124 5.407c2.217 8.665 3.223 17.206 2.989 25.386a7.5 7.5 0 0 1-7.493 7.286zm-46.666-66.667a7.486 7.486 0 0 1-5.94-2.914c-9.934-12.857-23.603-18.988-23.74-19.05-3.782-1.668-5.51-6.088-3.852-9.874 1.659-3.787 6.059-5.522 9.85-3.873.699.304 17.244 7.618 29.612 23.625a7.5 7.5 0 0 1-5.93 12.086z"/><circle fill="#FFF" r="7.5" cy="1761.883" cx="2717.113"/><path fill="#333" d="M2791.728 1871.716a7.508 7.508 0 0 0-2.757-5.468 7.507 7.507 0 0 0-5.914-1.591c-.376.06-5.24.859-12.708 3.129 9.996-32.325 9.043-59.175 8.989-60.47-.09-2.164-1.11-4.184-2.8-5.54s-3.886-1.912-6.014-1.532c-.461.082-6.822 1.259-16.132 4.833 5.432-40.55-22.086-76.404-23.407-78.096a7.503 7.503 0 0 0-8.36-2.473c-.557.192-3.591 1.32-8.075 4.273-25.19-28.95-53.505-44.204-82.237-44.204-28.75 0-57.071 15.262-82.253 44.222-4.587-3.034-7.641-4.147-8.058-4.291a7.505 7.505 0 0 0-8.36 2.473c-1.32 1.692-28.84 37.549-23.406 78.1-9.318-3.577-15.681-4.754-16.142-4.836a7.498 7.498 0 0 0-8.814 7.072c-.054 1.295-1.008 28.144 8.992 60.47-7.47-2.27-12.332-3.07-12.708-3.13-2.112-.338-4.26.244-5.914 1.592s-2.657 3.336-2.757 5.468c-.05 1.076-1.104 26.699 9.46 57.786 9.81 28.865 31.893 67.999 81.393 90.506a165.675 165.675 0 0 0 28.068 9.82v56.16c0 4.143 3.357 7.5 7.5 7.5h66c4.143 0 7.5-3.357 7.5-7.5v-56.162a165.684 165.684 0 0 0 28.062-9.818c49.5-22.507 71.583-61.641 81.392-90.506 10.563-31.088 9.509-56.711 9.46-57.787zm-88.75-133.374a91.554 91.554 0 0 0-2.05 2.117c-10.39 11.09-19.107 25.594-26.043 43.292a247.963 247.963 0 0 0-4.073-11.256c-8.985-23.022-19.4-38.665-30.998-46.65v-25.83c16.687 1.924 39.165 10.839 63.165 38.327zm-78.165-38.326v25.829c-11.603 7.984-22.02 23.628-31.007 46.65a248.415 248.415 0 0 0-4.086 11.29c-8.786-22.326-19.225-36.526-28.102-45.412 24.003-27.513 46.496-36.434 63.195-38.357zm-93.492 61.893c3.508-8.802 7.674-15.998 10.572-20.514 9.085 6.087 28.786 24.008 41.075 69.978a7.498 7.498 0 0 0 7.243 5.563l.17-.002a7.502 7.502 0 0 0 7.158-5.891c3.53-16.08 16.315-58.39 34.772-72.161 18.45 13.77 31.234 56.08 34.765 72.158a7.499 7.499 0 0 0 7.155 5.895c3.446.068 6.523-2.22 7.417-5.562 12.304-46.03 32.046-63.938 41.08-69.988 7.563 11.78 23.777 41.89 14.597 71.713a130.56 130.56 0 0 0-8.748 5.362c-17.098 11.415-30.546 26.15-40.136 43.943-2.506-5.865-5.73-12.707-9.658-19.68-12.824-22.76-27.563-37.432-43.807-43.607a7.506 7.506 0 0 0-5.33 0c-16.248 6.176-30.99 20.848-43.815 43.607-3.93 6.973-7.151 13.813-9.657 19.675-9.585-17.79-23.03-32.522-40.121-43.935a130.589 130.589 0 0 0-8.75-5.362c-4.744-15.363-3.403-32.568 4.018-51.192zm-30.858 55.609c6.83 2.292 16.796 6.417 27.257 13.416 19.338 12.91 33.37 30.675 41.705 52.797.033.086.066.172.103.257.042.102.079.205.117.308l.164.438a7.499 7.499 0 0 0 7.284 4.782 7.507 7.507 0 0 0 6.896-5.338l.143-.448c6.643-20.896 24.056-58.16 48.183-69.461 24.119 11.302 41.53 48.566 48.187 69.504l.125.394a7.498 7.498 0 0 0 7.19 5.36 7.499 7.499 0 0 0 6.994-4.793l.164-.438c.038-.103.075-.206.117-.308.035-.084.069-.17.102-.255 8.345-22.124 22.38-39.89 41.724-52.804 10.458-7.001 20.426-11.126 27.252-13.415-.638 12.035-3.098 33.944-12.08 57.17a149.167 149.167 0 0 0-7.516 3.672c-21.993 11.52-39.443 27.836-51.21 47.726-2.438-5.175-5.568-11.238-9.396-17.557-14.344-23.678-30.915-38.825-49.252-45.024a7.52 7.52 0 0 0-4.803 0c-18.338 6.199-34.908 21.347-49.253 45.024-3.827 6.316-6.958 12.382-9.397 17.557-11.765-19.89-29.216-36.206-51.208-47.726a149.167 149.167 0 0 0-7.517-3.671c-8.954-23.15-11.424-45.105-12.075-57.167zm157.35 260.969h-51v-45.6a165.51 165.51 0 0 0 25.497 1.98c8.526 0 17.053-.666 25.503-1.983v45.603zm110.077-153.301c-12.936 37.647-37.572 64.956-73.224 81.167a150.604 150.604 0 0 1-124.712 0c-35.652-16.211-60.288-43.52-73.224-81.167-6.137-17.857-8.063-33.976-8.643-43.573 18.017 5.2 58.676 21.454 76.864 65.319 1.195 2.885 4.07 4.745 7.173 4.624a7.5 7.5 0 0 0 6.855-5.082c.049-.143 4.939-14.387 14.505-30.176 8.194-13.525 21.456-30.74 38.827-37.7 34.502 13.785 53.14 67.329 53.327 67.876a7.5 7.5 0 0 0 6.855 5.082c3.112.122 5.978-1.74 7.173-4.623 18.117-43.694 58.83-60.042 76.862-65.293-.58 9.604-2.508 25.707-8.638 43.546z"/></g><defs><linearGradient y2="141.753" x2="132.276" y1="215.549" x1="174.074" gradientUnits="userSpaceOnUse" id="a"><stop stop-color="#FB7655" offset="0"/><stop stop-color="#FB7655" offset="0"/><stop stop-color="#E42B1E" offset=".41"/><stop stop-color="#900" offset=".99"/><stop stop-color="#900" offset="1"/></linearGradient><linearGradient y2=".193" x2=".017" y1=".609" x1="1.167" id="c"><stop stop-color="#871101" offset="0"/><stop stop-color="#871101" offset="0"/><stop stop-color="#911209" offset=".99"/><stop stop-color="#911209" offset="1"/></linearGradient><linearGradient y2=".078" x2=".39" y1="2.193" x1=".758" id="d"><stop stop-color="#871101" offset="0"/><stop stop-color="#871101" offset="0"/><stop stop-color="#911209" offset=".99"/><stop stop-color="#911209" offset="1"/></linearGradient><linearGradient y2=".791" x2=".665" y1=".072" x1=".5" id="e"><stop stop-color="#FFF" offset="0"/><stop stop-color="#FFF" offset="0"/><stop stop-color="#E57252" offset=".23"/><stop stop-color="#DE3B20" offset=".46"/><stop stop-color="#A60003" offset=".99"/><stop stop-color="#A60003" offset="1"/></linearGradient><linearGradient y2=".83" x2=".499" y1=".163" x1=".462" id="f"><stop stop-color="#FFF" offset="0"/><stop stop-color="#FFF" offset="0"/><stop stop-color="#E4714E" offset=".23"/><stop stop-color="#BE1A0D" offset=".56"/><stop stop-color="#A80D00" offset=".99"/><stop stop-color="#A80D00" offset="1"/></linearGradient><linearGradient y2=".925" x2=".495" y1=".156" x1=".37" id="g"><stop stop-color="#FFF" offset="0"/><stop stop-color="#FFF" offset="0"/><stop stop-color="#E46342" offset=".18"/><stop stop-color="#C82410" offset=".4"/><stop stop-color="#A80D00" offset=".99"/><stop stop-color="#A80D00" offset="1"/></linearGradient><linearGradient y2="-.467" x2=".858" y1=".583" x1=".136" id="h"><stop stop-color="#FFF" offset="0"/><stop stop-color="#FFF" offset="0"/><stop stop-color="#C81F11" offset=".54"/><stop stop-color="#BF0905" offset=".99"/><stop stop-color="#BF0905" offset="1"/></linearGradient><linearGradient y2=".791" x2=".507" y1=".211" x1=".276" id="i"><stop stop-color="#FFF" offset="0"/><stop stop-color="#FFF" offset="0"/><stop stop-color="#DE4024" offset=".31"/><stop stop-color="#BF190B" offset=".99"/><stop stop-color="#BF190B" offset="1"/></linearGradient><linearGradient y2="-.063" x2="1.042" y1="1.223" x1="-.207" id="j"><stop stop-color="#BD0012" offset="0"/><stop stop-color="#BD0012" offset="0"/><stop stop-color="#FFF" offset=".07"/><stop stop-color="#FFF" offset=".17"/><stop stop-color="#C82F1C" offset=".27"/><stop stop-color="#820C01" offset=".33"/><stop stop-color="#A31601" offset=".46"/><stop stop-color="#B31301" offset=".72"/><stop stop-color="#E82609" offset=".99"/><stop stop-color="#E82609" offset="1"/></linearGradient><linearGradient y2=".501" x2=".12" y1=".652" x1=".588" id="k"><stop stop-color="#8C0C01" offset="0"/><stop stop-color="#8C0C01" offset="0"/><stop stop-color="#990C00" offset=".54"/><stop stop-color="#A80D0E" offset=".99"/><stop stop-color="#A80D0E" offset="1"/></linearGradient><linearGradient y2=".179" x2=".231" y1=".628" x1=".793" id="l"><stop stop-color="#7E110B" offset="0"/><stop stop-color="#7E110B" offset="0"/><stop stop-color="#9E0C00" offset=".99"/><stop stop-color="#9E0C00" offset="1"/></linearGradient><linearGradient y2=".397" x2=".598" y1=".741" x1=".929" id="m"><stop stop-color="#79130D" offset="0"/><stop stop-color="#79130D" offset="0"/><stop stop-color="#9E120B" offset=".99"/><stop stop-color="#9E120B" offset="1"/></linearGradient><linearGradient y2=".12" x2=".031" y1="1.017" x1=".566" id="p"><stop stop-color="#8B2114" offset="0"/><stop stop-color="#8B2114" offset="0"/><stop stop-color="#9E100A" offset=".43"/><stop stop-color="#B3100C" offset=".99"/><stop stop-color="#B3100C" offset="1"/></linearGradient><linearGradient y2="1.007" x2=".925" y1=".356" x1=".309" id="q"><stop stop-color="#B31000" offset="0"/><stop stop-color="#B31000" offset="0"/><stop stop-color="#910F08" offset=".44"/><stop stop-color="#791C12" offset=".99"/><stop stop-color="#791C12" offset="1"/></linearGradient><linearGradient xlink:href="#a" id="b" x1=".848" y1="1.114" x2=".583" y2=".646"/><radialGradient gradientUnits="userSpaceOnUse" r="50.358" cy="79.388" cx="143.832" id="n"><stop stop-color="#A80D00" offset="0"/><stop stop-color="#A80D00" offset="0"/><stop stop-color="#7E0E08" offset=".99"/><stop stop-color="#7E0E08" offset="1"/></radialGradient><radialGradient gradientUnits="userSpaceOnUse" r="66.944" cy="145.751" cx="74.092" id="o"><stop stop-color="#A30C00" offset="0"/><stop stop-color="#A30C00" offset="0"/><stop stop-color="#800E08" offset=".99"/><stop stop-color="#800E08" offset="1"/></radialGradient></defs><g stroke="null" fill-rule="evenodd" clip-rule="evenodd"><path fill="url(#b)" d="M318.54 346.873l-58.08 34.488 75.203-5.103 5.792-75.83z"/><path fill="url(#c)" d="M335.786 376.206l-6.464-44.613-17.606 23.249z"/><path fill="url(#d)" d="M335.873 376.206l-47.354-3.717-27.808 8.775z"/><path fill="url(#e)" d="M260.778 381.274l11.83-38.755-26.032 5.566z"/><path fill="url(#f)" d="M311.711 354.97l-10.885-42.636-31.15 29.2z"/><path fill="url(#g)" d="M338.985 312.935l-29.445-24.05-8.2 26.51z"/><path fill="url(#h)" d="M325.215 280.31l-17.318 9.571-10.926-9.699z"/><path fill="url(#i)" d="M239.727 361.085l7.255-13.231-5.869-15.763z"/><path fill="#fff" d="M240.723 331.593l5.905 16.749 25.656-5.757 29.292-27.222 8.266-26.257-13.016-9.19-22.129 8.281c-6.972 6.485-20.501 19.316-20.989 19.557-.483.247-8.934 16.22-12.985 23.84z"/><path fill="url(#j)" d="M261.456 301.506c15.11-14.983 34.59-23.834 42.066-16.292 7.471 7.543-.452 25.872-15.562 40.85s-34.35 24.316-41.82 16.773c-7.476-7.537.205-26.354 15.316-41.331z"/><path fill="url(#k)" d="M260.778 381.258l11.737-38.878 38.98 12.523c-14.093 13.216-29.768 24.389-50.717 26.355z"/><path fill="url(#l)" d="M301.627 315.286l10.007 39.638c11.774-12.38 22.34-25.688 27.515-42.148l-37.522 2.51z"/><path fill="url(#m)" d="M339.047 312.976c4.005-12.087 4.929-29.425-13.956-32.645l-15.495 8.56 29.45 24.085z"/><path fill="#9e1209" d="M239.727 360.91c.555 19.948 14.946 20.245 21.077 20.42l-14.16-33.07-6.917 12.65z"/><path fill="url(#n)" d="M301.683 315.348c9.047 5.56 27.28 16.728 27.65 16.933.574.324 7.86-12.287 9.514-19.413l-37.164 2.48z"/><path fill="url(#o)" d="M272.5 342.38l15.69 30.273c9.279-5.032 16.544-11.162 23.198-17.73L272.5 342.38z"/><path fill="url(#p)" d="M246.582 348.3l-2.224 26.473c4.195 5.73 9.966 6.228 16.02 5.782-4.38-10.9-13.129-32.696-13.796-32.255z"/><path fill="url(#q)" d="M309.504 288.957l31.17 4.375c-1.663-7.05-6.772-11.599-15.48-13.021l-15.69 8.646z"/></g></svg>