<svg xmlns="http://www.w3.org/2000/svg" class="css-1j8o68f" viewBox="-4 -3 110 40"><defs><clipPath id="f" clipPathUnits="userSpaceOnUse"><path stroke-width="2.674" d="M208.348 117.856a4.548 4.548 0 0 0-2.935-3.523 45.748 45.748 0 0 0-3.671-1.094c.158-30.428-17.133-51.168-17.894-52.057a4.545 4.545 0 0 0-4.555-1.468c-.257.061-2.174.56-5.045 1.655-7.878-12.6-17.684-20.135-18.134-20.476a4.567 4.567 0 0 0-5.061-.302c-.212.123-1.668.996-3.779 2.536-7.042-8.013-14.356-12.132-14.706-12.327a4.562 4.562 0 0 0-4.419-.008c-.35.192-7.704 4.305-14.768 12.345a50.14 50.14 0 0 0-3.821-2.551 4.564 4.564 0 0 0-5.11.352c-.436.339-9.9 7.864-17.708 20.428a47.228 47.228 0 0 0-5.035-1.652 4.553 4.553 0 0 0-4.52 1.428c-.707.811-16.846 19.758-17.783 51.814-2.89.696-4.64 1.32-4.807 1.38a4.541 4.541 0 0 0-2.935 3.523c-.252 1.5-5.808 37 20.459 58.052 17.414 13.96 43.33 15.973 53.65 16.192 1.291 12.583 6.063 29.184 21.396 37.565a4.552 4.552 0 0 0 6.178-1.799 4.53 4.53 0 0 0-1.802-6.16c-11.437-6.252-15.352-19.238-16.568-29.63 10.765-.299 35.88-2.525 52.906-16.173 26.272-21.05 20.719-56.547 20.467-58.05z"/></clipPath><clipPath id="e" clipPathUnits="userSpaceOnUse"><path stroke-width="2.674" d="M208.348 117.856a4.548 4.548 0 0 0-2.935-3.523 45.748 45.748 0 0 0-3.671-1.094c.158-30.428-17.133-51.168-17.894-52.057a4.545 4.545 0 0 0-4.555-1.468c-.257.061-2.174.56-5.045 1.655-7.878-12.6-17.684-20.135-18.134-20.476a4.567 4.567 0 0 0-5.061-.302c-.212.123-1.668.996-3.779 2.536-7.042-8.013-14.356-12.132-14.706-12.327a4.562 4.562 0 0 0-4.419-.008c-.35.192-7.704 4.305-14.768 12.345a50.14 50.14 0 0 0-3.821-2.551 4.564 4.564 0 0 0-5.11.352c-.436.339-9.9 7.864-17.708 20.428a47.228 47.228 0 0 0-5.035-1.652 4.553 4.553 0 0 0-4.52 1.428c-.707.811-16.846 19.758-17.783 51.814-2.89.696-4.64 1.32-4.807 1.38a4.541 4.541 0 0 0-2.935 3.523c-.252 1.5-5.808 37 20.459 58.052 17.414 13.96 43.33 15.973 53.65 16.192 1.291 12.583 6.063 29.184 21.396 37.565a4.552 4.552 0 0 0 6.178-1.799 4.53 4.53 0 0 0-1.802-6.16c-11.437-6.252-15.352-19.238-16.568-29.63 10.765-.299 35.88-2.525 52.906-16.173 26.272-21.05 20.719-56.547 20.467-58.05z"/></clipPath><clipPath id="d" clipPathUnits="userSpaceOnUse"><path d="M79.256 45.366c-.1-.605-.52-1.11-1.096-1.32a17.043 17.043 0 0 0-1.371-.41c.059-11.399-6.398-19.169-6.682-19.502a1.694 1.694 0 0 0-1.701-.55c-.096.023-.812.21-1.884.62-2.942-4.72-6.604-7.543-6.772-7.671a1.701 1.701 0 0 0-1.89-.113c-.079.046-.623.373-1.411.95-2.63-3.002-5.361-4.545-5.492-4.618a1.699 1.699 0 0 0-1.65-.003c-.131.072-2.877 1.613-5.515 4.625-.46-.34-.937-.66-1.427-.956a1.7 1.7 0 0 0-1.908.132c-.163.127-3.697 2.946-6.613 7.653a17.597 17.597 0 0 0-1.88-.619 1.697 1.697 0 0 0-1.688.535c-.264.304-6.291 7.402-6.641 19.411-1.079.261-1.733.495-1.795.517a1.7 1.7 0 0 0-1.096 1.32c-.094.562-2.169 13.861 7.64 21.748 6.503 5.23 16.181 5.984 20.035 6.066.482 4.714 2.264 10.933 7.99 14.073a1.7 1.7 0 0 0 1.634-2.982c-4.271-2.342-5.733-7.207-6.187-11.1 4.02-.112 13.399-.946 19.757-6.059 9.811-7.886 7.737-21.184 7.643-21.747z"/></clipPath><clipPath id="c" clipPathUnits="userSpaceOnUse"><path d="M79.256 45.366c-.1-.605-.52-1.11-1.096-1.32a17.043 17.043 0 0 0-1.371-.41c.059-11.399-6.398-19.169-6.682-19.502a1.694 1.694 0 0 0-1.701-.55c-.096.023-.812.21-1.884.62-2.942-4.72-6.604-7.543-6.772-7.671a1.701 1.701 0 0 0-1.89-.113c-.079.046-.623.373-1.411.95-2.63-3.002-5.361-4.545-5.492-4.618a1.699 1.699 0 0 0-1.65-.003c-.131.072-2.877 1.613-5.515 4.625-.46-.34-.937-.66-1.427-.956a1.7 1.7 0 0 0-1.908.132c-.163.127-3.697 2.946-6.613 7.653a17.597 17.597 0 0 0-1.88-.619 1.697 1.697 0 0 0-1.688.535c-.264.304-6.291 7.402-6.641 19.411-1.079.261-1.733.495-1.795.517a1.7 1.7 0 0 0-1.096 1.32c-.094.562-2.169 13.861 7.64 21.748 6.503 5.23 16.181 5.984 20.035 6.066.482 4.714 2.264 10.933 7.99 14.073a1.7 1.7 0 0 0 1.634-2.982c-4.271-2.342-5.733-7.207-6.187-11.1 4.02-.112 13.399-.946 19.757-6.059 9.811-7.886 7.737-21.184 7.643-21.747z"/></clipPath><clipPath id="b" clipPathUnits="userSpaceOnUse"><path d="M79.256 45.366c-.1-.605-.52-1.11-1.096-1.32a17.043 17.043 0 0 0-1.371-.41c.059-11.399-6.398-19.169-6.682-19.502a1.694 1.694 0 0 0-1.701-.55c-.096.023-.812.21-1.884.62-2.942-4.72-6.604-7.543-6.772-7.671a1.701 1.701 0 0 0-1.89-.113c-.079.046-.623.373-1.411.95-2.63-3.002-5.361-4.545-5.492-4.618a1.699 1.699 0 0 0-1.65-.003c-.131.072-2.877 1.613-5.515 4.625-.46-.34-.937-.66-1.427-.956a1.7 1.7 0 0 0-1.908.132c-.163.127-3.697 2.946-6.613 7.653a17.597 17.597 0 0 0-1.88-.619 1.697 1.697 0 0 0-1.688.535c-.264.304-6.291 7.402-6.641 19.411-1.079.261-1.733.495-1.795.517a1.7 1.7 0 0 0-1.096 1.32c-.094.562-2.169 13.861 7.64 21.748 6.503 5.23 16.181 5.984 20.035 6.066.482 4.714 2.264 10.933 7.99 14.073a1.7 1.7 0 0 0 1.634-2.982c-4.271-2.342-5.733-7.207-6.187-11.1 4.02-.112 13.399-.946 19.757-6.059 9.811-7.886 7.737-21.184 7.643-21.747z"/></clipPath><clipPath id="a" clipPathUnits="userSpaceOnUse"><path d="M79.256 45.366c-.1-.605-.52-1.11-1.096-1.32a17.043 17.043 0 0 0-1.371-.41c.059-11.399-6.398-19.169-6.682-19.502a1.694 1.694 0 0 0-1.701-.55c-.096.023-.812.21-1.884.62-2.942-4.72-6.604-7.543-6.772-7.671a1.701 1.701 0 0 0-1.89-.113c-.079.046-.623.373-1.411.95-2.63-3.002-5.361-4.545-5.492-4.618a1.699 1.699 0 0 0-1.65-.003c-.131.072-2.877 1.613-5.515 4.625-.46-.34-.937-.66-1.427-.956a1.7 1.7 0 0 0-1.908.132c-.163.127-3.697 2.946-6.613 7.653a17.597 17.597 0 0 0-1.88-.619 1.697 1.697 0 0 0-1.688.535c-.264.304-6.291 7.402-6.641 19.411-1.079.261-1.733.495-1.795.517a1.7 1.7 0 0 0-1.096 1.32c-.094.562-2.169 13.861 7.64 21.748 6.503 5.23 16.181 5.984 20.035 6.066.482 4.714 2.264 10.933 7.99 14.073a1.7 1.7 0 0 0 1.634-2.982c-4.271-2.342-5.733-7.207-6.187-11.1 4.02-.112 13.399-.946 19.757-6.059 9.811-7.886 7.737-21.184 7.643-21.747z"/></clipPath></defs><path fill="none" d="M1.452 1.213h95.599v95.905H1.452z" clip-path="url(#a)" transform="matrix(.46861 0 0 .46712 -11.63 -3.856)"/><path fill="#fff" d="M40.038 63.557c-8.653-2.367-10.15-8.553-10.216-8.841a1.35 1.35 0 0 0-2.64.566c.069.328 1.819 8.056 12.143 10.88a1.35 1.35 0 0 0 .713-2.605z" clip-path="url(#b)" transform="matrix(.46861 0 0 .46712 -11.63 -3.856)"/><path fill="#fff" d="M79.256 45.366c-.1-.605-.52-1.11-1.096-1.32a17.042 17.042 0 0 0-1.371-.41c.059-11.399-6.398-19.169-6.682-19.502a1.694 1.694 0 0 0-1.701-.55c-.096.023-.812.21-1.884.62-2.942-4.72-6.604-7.543-6.772-7.671a1.701 1.701 0 0 0-1.89-.113c-.079.046-.623.373-1.411.95-2.63-3.002-5.361-4.545-5.492-4.618a1.699 1.699 0 0 0-1.65-.003c-.131.072-2.877 1.613-5.515 4.625-.46-.34-.937-.66-1.427-.956a1.7 1.7 0 0 0-1.908.132c-.163.127-3.697 2.946-6.613 7.653a17.597 17.597 0 0 0-1.88-.619 1.697 1.697 0 0 0-1.688.535c-.264.304-6.291 7.402-6.641 19.411-1.079.261-1.733.495-1.795.517a1.7 1.7 0 0 0-1.096 1.32c-.094.562-2.169 13.861 7.64 21.748 6.503 5.23 16.181 5.984 20.035 6.066.482 4.714 2.264 10.933 7.99 14.073a1.7 1.7 0 0 0 1.634-2.982c-4.271-2.342-5.733-7.207-6.187-11.1 4.02-.112 13.399-.946 19.757-6.059 9.811-7.886 7.737-21.184 7.643-21.747zm-5.855-2.38a27.37 27.37 0 0 0-3.48-.227c-2.621 0-5.113.407-7.423 1.187-.478-3.958-2.062-7.216-3.916-9.771 2.366-3.172 5.427-5.078 7.658-6.142.141-.035.28-.081.413-.154.06-.032.109-.074.163-.112.524-.232.989-.415 1.364-.55 1.51 2.138 5.074 7.994 5.221 15.769zM50.133 30.694c2.295 1.559 8.574 6.563 9.067 14.697a20.116 20.116 0 0 0-3.299 2.238c-2.977 2.499-4.792 6.062-5.901 9.541-1.108-3.478-2.924-7.042-5.9-9.541a20.2 20.2 0 0 0-3.04-2.107c.433-8.209 6.773-13.264 9.073-14.828zm13.279-5.044c-2.228 1.225-4.838 3.104-7.059 5.867a27.147 27.147 0 0 0-4.211-3.574c1.426-3.905 4.787-6.723 6.46-7.933a28.95 28.95 0 0 1 4.81 5.64zm-13.284-9.4c.87.599 2.305 1.713 3.716 3.312-1.279 1.23-2.633 2.804-3.713 4.687-1.083-1.883-2.443-3.458-3.729-4.688a20.938 20.938 0 0 1 3.726-3.311zm-8.478 3.771c1.686 1.209 5.043 4.009 6.472 7.92a26.893 26.893 0 0 0-4.16 3.509c-2.21-2.727-4.796-4.587-7.007-5.802a30.173 30.173 0 0 1 4.695-5.627zm-9.458 7.193c.366.131.819.308 1.328.531.063.047.125.095.196.134.145.079.297.127.45.161 2.204 1.051 5.205 2.93 7.56 6.055-1.886 2.581-3.504 5.89-3.972 9.933-2.379-.836-4.959-1.269-7.676-1.269-1.087 0-2.104.069-3.033.173.411-8.12 3.722-13.678 5.147-15.718zM23.99 46.946a24.188 24.188 0 0 1 6.089-.787c4.632 0 8.614 1.371 11.835 4.074 5.254 4.411 6.209 13.456 6.382 16.856-.034.796-.03 1.307-.028 1.41l.011.471c-.01.269-.016.538-.018.807-5.731-.146-13.126-1.597-17.745-5.313-6.814-5.478-6.76-14.495-6.526-17.518zm45.494 17.519c-4.63 3.724-12.045 5.174-17.78 5.314l.029-1.291a15.22 15.22 0 0 0 0-.394c.007-.468-.017-.896-.011-1.313.216-3.624 1.268-12.269 6.365-16.548 3.221-2.704 7.202-4.074 11.834-4.074 2.652 0 4.878.468 6.09.789.233 3.03.284 12.041-6.527 17.517z" clip-path="url(#c)" transform="matrix(.46861 0 0 .46712 -11.63 -3.856)"/><path fill="#fff" d="M71.784 53.687a1.352 1.352 0 0 0-1.606 1.027c-.059.263-1.544 6.471-10.215 8.843a1.35 1.35 0 0 0 .713 2.605c10.322-2.824 12.072-10.552 12.142-10.88a1.346 1.346 0 0 0-1.034-1.595z" clip-path="url(#d)" transform="matrix(.46861 0 0 .46712 -11.63 -3.856)"/><path fill="none" d="M.32 128.169V.43h255.477v255.478H.32zm152.203 100.933c1.162-1 1.527-1.811 1.527-3.396 0-2.229-.569-2.877-6.063-6.911-5.065-3.719-9.08-10.565-11.304-19.28-1.895-7.422-2.07-7.111 4.26-7.543 29.995-2.045 51.418-13.779 61.385-33.62 4.852-9.659 6.641-18.094 6.641-31.316 0-10.88-.301-11.806-4.272-13.13l-2.378-.792-.628-6.702c-.76-8.11-1.93-13.575-4.481-20.915-3.65-10.506-11.465-24.092-14.774-25.685-1.48-.712-3.97-.444-7.13.769-.568.218-1.623-.787-3.336-3.177-3.55-4.953-8.957-10.95-13.113-14.546-4.1-3.548-5.688-3.85-9.162-1.748l-2.194 1.328-3.85-3.565c-4.338-4.016-11.598-9.071-13.028-9.071-2.355 0-8.433 4.184-14.064 9.682l-3.186 3.11-2.404-1.408c-3.093-1.813-4.684-1.777-7.35.167-3.094 2.257-9.671 9.345-13.596 14.652-1.852 2.505-3.443 4.636-3.537 4.736-.094.1-1.502-.233-3.129-.741-2.261-.706-3.314-.786-4.47-.34-2.058.796-5.805 6.04-9.442 13.218-6.005 11.847-8.804 21.805-10.117 35.98l-.367 3.965-2.368.596c-1.302.328-2.9 1.038-3.55 1.577-3.197 2.65-3.078 19.031.23 31.738 4.653 17.879 16.579 31.146 34.473 38.353 9.348 3.765 20.625 6.212 31.734 6.887l5.983.363.355 2.552c2.142 15.386 9.664 28.35 19.816 34.155 2.994 1.712 4.947 1.728 6.889.058z" clip-path="url(#e)" transform="matrix(.175 0 0 .175 -10.951 -3.289)"/><path fill="none" d="M.32 128.169V.43h255.477v255.478H.32zm152.203 100.933c1.162-1 1.527-1.811 1.527-3.396 0-2.229-.569-2.877-6.063-6.911-5.065-3.719-9.08-10.565-11.304-19.28-1.895-7.422-2.07-7.111 4.26-7.543 29.995-2.045 51.418-13.779 61.385-33.62 4.852-9.659 6.641-18.094 6.641-31.316 0-10.88-.301-11.806-4.272-13.13l-2.378-.792-.628-6.702c-.76-8.11-1.93-13.575-4.481-20.915-3.65-10.506-11.465-24.092-14.774-25.685-1.48-.712-3.97-.444-7.13.769-.568.218-1.623-.787-3.336-3.177-3.55-4.953-8.957-10.95-13.113-14.546-4.1-3.548-5.688-3.85-9.162-1.748l-2.194 1.328-3.85-3.565c-4.338-4.016-11.598-9.071-13.028-9.071-2.355 0-8.433 4.184-14.064 9.682l-3.186 3.11-2.404-1.408c-3.093-1.813-4.684-1.777-7.35.167-3.094 2.257-9.671 9.345-13.596 14.652-1.852 2.505-3.443 4.636-3.537 4.736-.094.1-1.502-.233-3.129-.741-2.261-.706-3.314-.786-4.47-.34-2.058.796-5.805 6.04-9.442 13.218-6.005 11.847-8.804 21.805-10.117 35.98l-.367 3.965-2.368.596c-1.302.328-2.9 1.038-3.55 1.577-3.197 2.65-3.078 19.031.23 31.738 4.653 17.879 16.579 31.146 34.473 38.353 9.348 3.765 20.625 6.212 31.734 6.887l5.983.363.355 2.552c2.142 15.386 9.664 28.35 19.816 34.155 2.994 1.712 4.947 1.728 6.889.058z" clip-path="url(#f)" transform="matrix(.175 0 0 .175 -10.951 -3.289)"/><path fill="#fff" d="M34.493 14.387v4.71h4.516c1.484 0 2.355-.871 2.355-2.355s-.871-2.355-2.355-2.355zm7.322 7.903c.904 1.226 1.807 2.452 2.742 3.645.904 1.194 1.807 2.42 2.71 3.646h-5.903c-1.161-1.549-2.29-3.097-3.42-4.646-1.129-1.516-2.29-3.064-3.451-4.612v9.258h-4.839V9.839h9.355c3.677 0 6.806 2.806 6.806 6.516 0 2.613-1.612 4.903-4 5.935zm18.613-8.838h4.84v8.064c0 4.936-3.42 8.226-8.227 8.226-4.935 0-8.226-3.452-8.226-8.226v-8.064h4.84v8.064c0 2.161 1.096 3.742 3.386 3.742 2.355 0 3.387-1.548 3.387-3.742zm12.904 8.064c0 2.387 1.193 3.742 3.612 3.742.678 0 1.29-.097 1.775-.323.903-.354 1.516-1.032 1.838-1.967.13-.452.194-.936.194-1.452 0-.516-.065-1-.194-1.451-.354-1-.903-1.549-1.838-2-.484-.194-1.097-.29-1.775-.29-2.419 0-3.612 1.354-3.612 3.741zM68.492 7h4.84v8.065c1.096-1.259 2.58-1.775 4.225-1.775 4.71 0 8.033 3.775 8.033 8.29 0 5.097-3.775 8.162-8.581 8.162-5 0-8.516-3.29-8.516-8.226zm30.614 14.516v-8.064h4.839v15.29c0 5.129-3.678 8.258-8.549 8.258-1.71 0-3.42-.161-5.064-.71v-4.967c1.387.742 3.258 1 4.806 1 1.742 0 3.13-.517 3.774-2.194.13-.452.194-.935.194-1.42v-.741c-1.097 1.226-2.516 1.774-4.13 1.774-4.58 0-7.483-3.936-7.483-8.226v-8.064h4.839v8.064c0 2.194.87 3.742 3.225 3.742 2.29 0 3.549-1.516 3.549-3.742z"/></svg>