<svg xmlns="http://www.w3.org/2000/svg" class="css-1j8o68f" viewBox="0 0 16 16"><path d="M6.133 10.534c-1.622-.443-1.902-1.599-1.915-1.652a.253.252 0 0 0-.495.105c.013.062.341 1.506 2.276 2.033a.253.252 0 0 0 .134-.486z"/><path d="M13.485 7.135a.318.318 0 0 0-.206-.247 3.195 3.184 0 0 0-.257-.077c.011-2.13-1.2-3.581-1.252-3.644a.318.317 0 0 0-.32-.102c-.017.004-.152.039-.352.116a5.832 5.832 0 0 0-1.27-1.434.319.318 0 0 0-.354-.02c-.015.008-.117.069-.265.177a4.306 4.306 0 0 0-1.03-.863.318.317 0 0 0-.308 0c-.025.013-.54.3-1.034.863a3.51 3.498 0 0 0-.268-.178.319.318 0 0 0-.357.024c-.03.024-.693.55-1.24 1.43a3.299 3.288 0 0 0-.352-.115.318.317 0 0 0-.317.1c-.05.056-1.179 1.383-1.245 3.627-.202.048-.324.092-.336.096a.319.318 0 0 0-.206.247c-.017.105-.406 2.59 1.433 4.063 1.219.978 3.033 1.119 3.755 1.134.09.88.425 2.043 1.498 2.63a.318.317 0 0 0 .432-.127.319.318 0 0 0-.126-.43c-.8-.438-1.074-1.347-1.16-2.075.754-.02 2.512-.177 3.704-1.132 1.839-1.473 1.45-3.958 1.433-4.063zm-1.098-.445a5.13 5.114 0 0 0-.652-.042 4.35 4.35 0 0 0-1.392.221 3.88 3.88 0 0 0-.734-1.825c.444-.593 1.017-.95 1.436-1.148a.318.318 0 0 0 .077-.029c.011-.006.02-.014.03-.02.099-.044.186-.078.256-.104.283.4.951 1.494.979 2.947zM8.025 4.393c.43.291 1.608 1.226 1.7 2.746a3.77 3.759 0 0 0-.618.418C8.549 8.024 8.208 8.69 8 9.34c-.208-.65-.549-1.316-1.106-1.783a3.786 3.774 0 0 0-.57-.393c.08-1.534 1.27-2.479 1.7-2.77zm2.49-.942c-.418.229-.907.58-1.324 1.096a5.089 5.072 0 0 0-.789-.668c.267-.73.897-1.256 1.21-1.482a5.427 5.41 0 0 1 .903 1.054zm-2.49-1.757c.163.112.432.32.696.62-.24.229-.493.523-.696.875a3.966 3.966 0 0 0-.699-.876 3.925 3.912 0 0 1 .698-.619zm-1.59.705c.316.226.946.749 1.213 1.48a5.041 5.025 0 0 0-.78.655A4.448 4.448 0 0 0 5.556 3.45a5.656 5.638 0 0 1 .88-1.051zM4.662 3.743c.069.024.154.057.25.1.011.008.023.017.036.024a.319.319 0 0 0 .084.03c.414.197.976.548 1.418 1.132a3.879 3.879 0 0 0-.745 1.856 4.34 4.34 0 0 0-1.439-.237c-.204 0-.394.012-.568.032.077-1.517.697-2.556.964-2.937zM3.125 7.43a4.534 4.52 0 0 1 1.141-.147c.869 0 1.615.256 2.219.761.985.824 1.164 2.514 1.196 3.15a4.799 4.799 0 0 0-.005.263l.002.088a5.183 5.166 0 0 0-.003.15c-1.075-.026-2.46-.298-3.327-.992C3.071 9.68 3.081 7.995 3.125 7.43zm8.528 3.273c-.868.696-2.258.967-3.333.993l.005-.241a2.937 2.928 0 0 0 0-.074c.005-.07.01-.11.01-.113a.316.316 0 0 0-.012-.132c.04-.677.238-2.292 1.193-3.092.604-.505 1.35-.761 2.219-.761.497 0 .914.087 1.141.147.044.566.053 2.25-1.223 3.273z"/><path d="M12.084 8.69a.253.253 0 0 0-.301.191c-.011.05-.29 1.21-1.915 1.653a.253.252 0 0 0 .134.486c1.935-.527 2.263-1.971 2.276-2.033a.252.252 0 0 0-.194-.298z"/></svg>