<svg version="1.0" xmlns="http://www.w3.org/2000/svg" width="1066.667" height="1066.667" viewBox="0 0 800 800"><path d="M387.7 38.1c-31.6 2.8-63.6 16.2-92.7 38.7-4.7 3.7-15.8 13.8-24.7 22.6L254 115.3l-7.1-3.6c-10-5.2-14.4-5.1-20.4.4-11.5 10.6-29.9 46.9-37.8 74.4-4.5 15.7-5.7 25.3-5.7 45.5v18.8l-10.7-3.5c-6-1.9-14-3.7-17.8-4-7-.6-7.1-.5-10.8 2.9l-3.7 3.5v15.7c0 26.7 4.9 61.2 12.5 87.6 1.3 4.6 2.2 8.6 2.1 8.8-.2.1-4.9-.9-10.4-2.3-11.5-2.9-16.1-3.1-20.1-1.1-6.4 3.3-7.7 10.6-6.1 32.6 7 93.6 50.1 171.8 120.8 219 21.9 14.7 43.4 24.9 72.7 34.6l16 5.3.5 51.8c.5 57 .3 54.8 6.7 59 2.5 1.7 7.2 1.8 64.8 1.8 67.7 0 65.5.2 69.9-5.8 2.1-2.8 2.1-4.1 2.6-54.9l.5-52.1 9.6-3 9.7-2.9 7.2-13.4c6.2-11.4 8.4-14.5 14.6-20.4 4.1-3.9 7.2-7 7.1-7-.2 0-5.1 2.2-10.8 4.9-60.9 28.5-137 31.3-201.6 7.5-12.8-4.7-37.6-16.7-48.2-23.3-27-16.8-53.3-42.1-70.8-68.1-19.9-29.7-34.6-67.9-41.2-107-2.6-15.3-3.7-29-2.3-29 3 0 23.5 8 35.7 14 43 20.9 75.2 52.5 94.7 92.7 6.7 14.1 9 16.3 17.1 16.3 7.1 0 10.5-3.7 15.6-17 4.9-12.7 14.4-31.7 23.1-46.3 16.9-28.3 38.7-50.8 60.4-62.2l7.3-3.9 7.6 3.7c30.7 15.2 63.4 57.8 83.7 108.9 5.2 13.1 7.8 16 15.3 16.6 7.5.6 10.5-2.2 16.6-15.2 19-40.6 52-72.8 95.9-93.9 11.1-5.2 32.7-13.7 35.2-13.7 1.4 0 1.2 6.3-.6 19.2-8.4 61-32.4 112.2-70.5 150.7-5.2 5.2-8.7 9.3-7.9 8.9.8-.3 5.4-2 10.2-3.8l8.7-3.2 3.3 2c1.8 1 9.6 3.4 17.3 5.2 7.7 1.8 14.4 3.5 14.9 3.8.5.2-1.7 1.9-4.8 3.7l-5.6 3.2 7.6 6.2c4.1 3.5 7.4 6.4 7.2 6.6-.1.2-4.3.8-9.2 1.4-4.9.6-9.1 1.3-9.4 1.5-.2.3-3.1 8.8-6.3 18.9l-5.8 18.4 1.9 7.4c1.1 4.1 2 7.7 2 8 0 .3-4.8.9-10.6 1.2-5.8.4-11.2 1-11.9 1.4-.7.5-9.8 8.6-20.2 18.1-14.5 13.4-19.2 18.3-20.4 21.5-.9 2.3-2.3 4.5-3 4.9-1.8 1-39.5 13.8-40.8 13.8-1.4 0-7.5-11.6-10-19-3.1-9.5-3.4-9.8-6.1-5.5-4.6 7.5-5.4 46.6-1.1 57.7 3.1 8 9.5 14.8 17.3 18.3 8.7 3.9 18.6 4.2 57.3 1.6 73.9-4.8 113-7.4 113.2-7.6 1-.5 10.6-135.5 10.7-149.5.1-17.2.1-17.6-2.7-23.2-3.3-6.8-9-12.1-16.6-15.6-4.9-2.3-7.4-2.7-21.1-3.3-8.5-.4-17.4-.8-19.7-.8l-4.1-.1 7.7-10.4c19.9-26.7 35.9-59.1 45-91.4 7.8-27.7 12.1-54.8 12.4-78.2.2-15.1-.8-18.7-6.3-21.5-4.1-2.1-9-1.9-20.4 1-5.4 1.4-10 2.4-10.1 2.3-.2-.2 1.2-6.3 3.1-13.6 7.5-29.5 11.4-57.1 11.4-81.8 0-14.5-.2-16.4-2-18.6-4.7-6-12.7-6.1-30.2-.5l-10.6 3.4-.1-16.6c0-31.2-6.8-57.6-23.2-90.1-8.2-16.3-15.4-27.4-20.9-32.3-5.5-5-10.1-5-19.9-.1l-7.3 3.6-15.6-15.4c-8.6-8.5-19.5-18.4-24.2-22C475.5 54.2 444.4 41 412.5 38c-11.9-1.1-11.9-1.1-24.8.1zm-1.8 49.6-.1 22.8-6.1 5.1c-18.6 15.2-36.4 44.5-50.7 83.7l-4.7 12.7-2.8-6.7c-9.4-22.6-25-48.5-38.8-64.4l-7.5-8.6 12.7-12.6c15.7-15.7 20.9-20.1 34-28.9C339.7 78.9 357.6 71 376 67c4.7-1 8.8-1.9 9.3-1.9.4-.1.7 10.1.6 22.6zm44.6-19.2c15.5 3.9 30.9 11.1 48.5 22.8 10.5 7 16.5 12.1 32.2 27.5l13.6 13.5-8.3 9.9c-14.6 17.3-30.1 43.1-38.1 63.2l-2.7 6.9-1.3-3.4c-.7-1.9-3.2-8.4-5.5-14.4-5.8-15.5-18.7-41.4-25.7-52-6.9-10.3-15.8-20.6-23.7-27.4l-5.4-4.6-.1-22.7V65.1l3.8.6c2 .3 7.8 1.6 12.7 2.8zM408 141.6c9.3 9.9 16.4 20.9 25.5 39.7 10.9 22.7 16.9 39.8 28 80.2 2 7 5.1 9.7 12 10.3 9.7.8 12-1.9 17.5-21.2 7.6-26.4 20-53.9 33.6-74.2 7.9-11.9 24-29.8 31.4-34.9l4.2-2.9 1.9 2.4c3.3 4.4 15.7 30.2 18.9 39.5 7.8 22.5 11.2 46.1 9.1 63.2-1.5 12.7-3.6 20.5-5.8 22-1 .7-7 4.7-13.3 8.9-28.3 18.7-52.6 44.4-68 71.8-3.2 5.7-3.4 5.8-4.4 3.5-4.1-10-14.8-30.6-21.6-41.4-11.4-18.2-20.1-29.4-32.2-41-12-11.7-20-17.6-31.8-23.6-11.3-5.8-14.7-5.8-26 0-29.9 15.1-54.9 43.8-78.2 89.9-8.3 16.5-8.8 17.2-10.1 15-.8-1.3-3.5-5.8-6.1-10-15.8-25.9-42.5-52.1-70.3-68.9-9-5.5-8.8-5.1-11.5-18.6-2-9.8-1.4-33.2 1.1-45.3 2.8-13.5 7.9-28.7 13.9-41.4 5.9-12.7 13.1-25.6 14.2-25.6 1.4 0 10.2 7.5 17.1 14.6 21.3 22.1 37 51.5 50.9 95.4 6.4 19.9 8.6 23 16.7 23 5.1 0 10.4-2.5 12.2-5.7.5-1 2.1-6.8 3.6-12.8 8.5-34.9 25.5-76.2 40.8-99 3.9-5.8 17.3-20.5 18.7-20.5.4 0 4 3.4 8 7.6zm1.5 131.6c9.6 6.2 25.7 22.2 33.9 33.7 14.4 20.2 27.7 45.5 36.5 69.6 2.8 7.7 5.9 15.5 6.8 17.3 3.4 6.7 12.3 9.2 18.8 5.2 3.4-2.1 4.7-4.3 9.7-16.4 16-39 46.4-72.5 85.2-94.3 9.3-5.2 29.6-14.3 32.1-14.3 1.2 0 1.1.9-.5 17-2.5 23-7.7 47-15.2 70.2l-4.2 12.7-10.5 5.3c-13.2 6.6-34.7 20.7-45.4 29.7-16.8 14.1-35.9 35.6-44.8 50.5l-3.3 5.5-6.4-12.2c-16.6-31.5-40.4-62.1-60.3-77.4-16.2-12.4-35.7-21.9-43.4-21-9.9 1.1-29.7 12.1-45.5 25.2-20 16.7-41.6 45.6-56.6 75.7l-4.7 9.6-5-7.7c-20.2-31.2-50-57.5-87.2-77.2l-12-6.4-4.6-13.8c-5.3-15.9-8.9-30.2-11.9-47.2-2.3-13.4-4.7-37.1-3.8-38 .8-.8 14.8 4.9 26.2 10.8 18.4 9.4 33.5 20.3 48.4 34.8 19.7 19.3 31.2 36.3 43.6 64.4 6.2 14 8.7 16.5 16.7 16.5 7.3 0 10.7-3.8 14.9-16.5 1.8-5.5 5.7-15.6 8.7-22.5 14.5-33.5 31.2-59.2 49.8-76.9 7.8-7.4 21.7-17.1 24.5-17.1.9 0 5.2 2.3 9.5 5.2zm-40 384.3c6.5.8 19.6 1.5 29 1.5 15.5 0 21.5-.4 40.3-2.5l6.2-.8V736h-90v-40c0-31.3.3-40 1.3-40 .6 0 6.6.7 13.2 1.5z"/><path d="M584 565.7c-9.1 1.5-24.2 8.6-37 17.4-29.2 20-53.2 51-58.9 76-.6 2.4-1.1 7.1-1.1 10.4v5.9l7.8 7.3c8.7 8.2 11.3 9.2 19.9 7.4 30.7-6.1 73.4-42.7 90.4-77.6 9.5-19.4 9.9-34.9 1.1-42.8-4.2-3.9-13.4-5.5-22.2-4z"/></svg>