<?xml version="1.0" standalone="no"?>
<!DOCTYPE svg PUBLIC "-//W3C//DTD SVG 20010904//EN"
 "http://www.w3.org/TR/2001/REC-SVG-20010904/DTD/svg10.dtd">
<svg version="1.0" xmlns="http://www.w3.org/2000/svg"
 width="800.000000pt" height="800.000000pt" viewBox="0 0 800.000000 800.000000"
 preserveAspectRatio="xMidYMid meet">
<metadata>
Created by potrace 1.11, written by Peter Selinger 2001-2013
</metadata>
<g transform="translate(0.000000,800.000000) scale(0.100000,-0.100000)"
fill="#000000" stroke="none">
<path d="M3877 7619 c-316 -28 -636 -162 -927 -387 -47 -37 -158 -138 -247
-226 l-163 -159 -71 36 c-100 52 -144 51 -204 -4 -115 -106 -299 -469 -378
-744 -45 -157 -57 -253 -57 -455 l0 -188 -107 35 c-60 19 -140 37 -178 40 -70
6 -71 5 -108 -29 l-37 -35 0 -157 c0 -267 49 -612 125 -876 13 -46 22 -86 21
-88 -2 -1 -49 9 -104 23 -115 29 -161 31 -201 11 -64 -33 -77 -106 -61 -326
70 -936 501 -1718 1208 -2190 219 -147 434 -249 727 -346 l160 -53 5 -518 c5
-570 3 -548 67 -590 25 -17 72 -18 648 -18 677 0 655 -2 699 58 21 28 21 41
26 549 l5 521 96 30 97 29 72 134 c62 114 84 145 146 204 41 39 72 70 71 70
-2 0 -51 -22 -108 -49 -609 -285 -1370 -313 -2016 -75 -128 47 -376 167 -482
233 -270 168 -533 421 -708 681 -199 297 -346 679 -412 1070 -26 153 -37 290
-23 290 30 0 235 -80 357 -140 430 -209 752 -525 947 -927 67 -141 90 -163
171 -163 71 0 105 37 156 170 49 127 144 317 231 463 169 283 387 508 604 622
l73 39 76 -37 c307 -152 634 -578 837 -1089 52 -131 78 -160 153 -166 75 -6
105 22 166 152 190 406 520 728 959 939 111 52 327 137 352 137 14 0 12 -63
-6 -192 -84 -610 -324 -1122 -705 -1507 -52 -52 -87 -93 -79 -89 8 3 54 20
102 38 l87 32 33 -20 c18 -10 96 -34 173 -52 77 -18 144 -35 149 -38 5 -2 -17
-19 -48 -37 l-56 -32 76 -62 c41 -35 74 -64 72 -66 -1 -2 -43 -8 -92 -14 -49
-6 -91 -13 -94 -15 -2 -3 -31 -88 -63 -189 l-58 -184 19 -74 c11 -41 20 -77
20 -80 0 -3 -48 -9 -106 -12 -58 -4 -112 -10 -119 -14 -7 -5 -98 -86 -202
-181 -145 -134 -192 -183 -204 -215 -9 -23 -23 -45 -30 -49 -18 -10 -395 -138
-408 -138 -14 0 -75 116 -100 190 -31 95 -34 98 -61 55 -46 -75 -54 -466 -11
-577 31 -80 95 -148 173 -183 87 -39 186 -42 573 -16 739 48 1130 74 1132 76
10 5 106 1355 107 1495 1 172 1 176 -27 232 -33 68 -90 121 -166 156 -49 23
-74 27 -211 33 -85 4 -174 8 -197 8 l-41 1 77 104 c199 267 359 591 450 914
78 277 121 548 124 782 2 151 -8 187 -63 215 -41 21 -90 19 -204 -10 -54 -14
-100 -24 -101 -23 -2 2 12 63 31 136 75 295 114 571 114 818 0 145 -2 164 -20
186 -47 60 -127 61 -302 5 l-106 -34 -1 166 c0 312 -68 576 -232 901 -82 163
-154 274 -209 323 -55 50 -101 50 -199 1 l-73 -36 -156 154 c-86 85 -195 184
-242 220 -305 236 -616 368 -935 398 -119 11 -119 11 -248 -1z m-18 -496 l-1
-228 -61 -51 c-186 -152 -364 -445 -507 -837 l-47 -127 -28 67 c-94 226 -250
485 -388 644 l-75 86 127 126 c157 157 209 201 340 289 178 119 357 198 541
238 47 10 88 19 93 19 4 1 7 -101 6 -226z m446 192 c155 -39 309 -111 485
-228 105 -70 165 -121 322 -275 l136 -135 -83 -99 c-146 -173 -301 -431 -381
-632 l-27 -69 -13 34 c-7 19 -32 84 -55 144 -58 155 -187 414 -257 520 -69
103 -158 206 -237 274 l-54 46 -1 227 0 227 38 -6 c20 -3 78 -16 127 -28z
m-225 -731 c93 -99 164 -209 255 -397 109 -227 169 -398 280 -802 20 -70 51
-97 120 -103 97 -8 120 19 175 212 76 264 200 539 336 742 79 119 240 298 314
349 l42 29 19 -24 c33 -44 157 -302 189 -395 78 -225 112 -461 91 -632 -15
-127 -36 -205 -58 -220 -10 -7 -70 -47 -133 -89 -283 -187 -526 -444 -680
-718 -32 -57 -34 -58 -44 -35 -41 100 -148 306 -216 414 -114 182 -201 294
-322 410 -120 117 -200 176 -318 236 -113 58 -147 58 -260 0 -299 -151 -549
-438 -782 -899 -83 -165 -88 -172 -101 -150 -8 13 -35 58 -61 100 -158 259
-425 521 -703 689 -90 55 -88 51 -115 186 -20 98 -14 332 11 453 28 135 79
287 139 414 59 127 131 256 142 256 14 0 102 -75 171 -146 213 -221 370 -515
509 -954 64 -199 86 -230 167 -230 51 0 104 25 122 57 5 10 21 68 36 128 85
349 255 762 408 990 39 58 173 205 187 205 4 0 40 -34 80 -76z m15 -1316 c96
-62 257 -222 339 -337 144 -202 277 -455 365 -696 28 -77 59 -155 68 -173 34
-67 123 -92 188 -52 34 21 47 43 97 164 160 390 464 725 852 943 93 52 296
143 321 143 12 0 11 -9 -5 -170 -25 -230 -77 -470 -152 -702 l-42 -127 -105
-53 c-132 -66 -347 -207 -454 -297 -168 -141 -359 -356 -448 -505 l-33 -55
-64 122 c-166 315 -404 621 -603 774 -162 124 -357 219 -434 210 -99 -11 -297
-121 -455 -252 -200 -167 -416 -456 -566 -757 l-47 -96 -50 77 c-202 312 -500
575 -872 772 l-120 64 -46 138 c-53 159 -89 302 -119 472 -23 134 -47 371 -38
380 8 8 148 -49 262 -108 184 -94 335 -203 484 -348 197 -193 312 -363 436
-644 62 -140 87 -165 167 -165 73 0 107 38 149 165 18 55 57 156 87 225 145
335 312 592 498 769 78 74 217 171 245 171 9 0 52 -23 95 -52z m-400 -3843
c65 -8 196 -15 290 -15 155 0 215 4 403 25 l62 8 0 -402 0 -401 -450 0 -450 0
0 400 c0 313 3 400 13 400 6 0 66 -7 132 -15z"/>
<path d="M5840 2343 c-91 -15 -242 -86 -370 -174 -292 -200 -532 -510 -589
-760 -6 -24 -11 -71 -11 -104 l0 -59 78 -73 c87 -82 113 -92 199 -74 307 61
734 427 904 776 95 194 99 349 11 428 -42 39 -134 55 -222 40z"/>
</g>
</svg>
