<svg xmlns="http://www.w3.org/2000/svg" class="css-1j8o68f" viewBox="0 0 16 16">
  <g transform="matrix(.18745 0 0 .18685 -1.372 -1.342)">
    <path d="M40.038 63.557c-8.653-2.367-10.15-8.553-10.216-8.841a1.35 1.35 0 00-2.64.566c.069.328 1.819 8.056 12.143 10.88a1.35 1.35 0 00.713-2.605z"/>
    <path d="M79.256 45.366c-.1-.605-.52-1.11-1.096-1.32a17.042 17.042 0 00-1.371-.41c.059-11.399-6.398-19.169-6.682-19.502a1.694 1.694 0 00-1.701-.55c-.096.023-.812.21-1.884.62-2.942-4.72-6.604-7.543-6.772-7.671a1.701 1.701 0 00-1.89-.113c-.079.046-.623.373-1.411.95-2.63-3.002-5.361-4.545-5.492-4.618a1.699 1.699 0 00-1.65-.003c-.131.072-2.877 1.613-5.515 4.625a18.72 18.72 0 00-1.427-.956 1.7 1.7 0 00-1.908.132c-.163.127-3.697 2.946-6.613 7.653a17.597 17.597 0 00-1.88-.619 1.697 1.697 0 00-1.688.535c-.264.304-6.291 7.402-6.641 19.411-1.079.261-1.733.495-1.795.517a1.7 1.7 0 00-1.096 1.32c-.094.562-2.169 13.861 7.64 21.748 6.503 5.23 16.181 5.984 20.035 6.066.482 4.714 2.264 10.933 7.99 14.073a1.697 1.697 0 002.307-.674 1.7 1.7 0 00-.673-2.308c-4.271-2.342-5.733-7.207-6.187-11.1 4.02-.112 13.399-.946 19.757-6.059 9.811-7.886 7.737-21.184 7.643-21.747zm-5.855-2.38a27.37 27.37 0 00-3.48-.227c-2.621 0-5.113.407-7.423 1.187-.478-3.958-2.062-7.216-3.916-9.771 2.366-3.172 5.427-5.078 7.658-6.142.141-.035.28-.081.413-.154.06-.032.109-.074.163-.112.524-.232.989-.415 1.364-.55 1.51 2.138 5.074 7.994 5.221 15.769zM50.133 30.694c2.295 1.559 8.574 6.563 9.067 14.697a20.116 20.116 0 00-3.299 2.238c-2.977 2.499-4.792 6.062-5.901 9.541-1.108-3.478-2.924-7.042-5.9-9.541a20.2 20.2 0 00-3.04-2.107c.433-8.209 6.773-13.264 9.073-14.828zm13.279-5.044c-2.228 1.225-4.838 3.104-7.059 5.867a27.147 27.147 0 00-4.211-3.574c1.426-3.905 4.787-6.723 6.46-7.933a28.95 28.95 0 014.81 5.64zm-13.284-9.4c.87.599 2.305 1.713 3.716 3.312-1.279 1.23-2.633 2.804-3.713 4.687-1.083-1.883-2.443-3.458-3.729-4.688a20.938 20.938 0 013.726-3.311zm-8.478 3.771c1.686 1.209 5.043 4.009 6.472 7.92a26.893 26.893 0 00-4.16 3.509c-2.21-2.727-4.796-4.587-7.007-5.802a30.173 30.173 0 014.695-5.627zm-9.458 7.193c.366.131.819.308 1.328.531.063.047.125.095.196.134.145.079.297.127.45.161 2.204 1.051 5.205 2.93 7.56 6.055-1.886 2.581-3.504 5.89-3.972 9.933-2.379-.836-4.959-1.269-7.676-1.269-1.087 0-2.104.069-3.033.173.411-8.12 3.722-13.678 5.147-15.718zM23.99 46.946a24.188 24.188 0 016.089-.787c4.632 0 8.614 1.371 11.835 4.074 5.254 4.411 6.209 13.456 6.382 16.856-.034.796-.03 1.307-.028 1.41l.011.471a27.65 27.65 0 00-.018.807c-5.731-.146-13.126-1.597-17.745-5.313-6.814-5.478-6.76-14.495-6.526-17.518zm45.494 17.519c-4.63 3.724-12.045 5.174-17.78 5.314l.029-1.291a15.67 15.67 0 000-.394c.025-.374.051-.591.053-.607.03-.245.004-.484-.064-.706.216-3.624 1.268-12.269 6.365-16.548 3.221-2.704 7.202-4.074 11.834-4.074 2.652 0 4.878.468 6.09.789.233 3.03.284 12.041-6.527 17.517z"/>
    <path d="M71.784 53.687a1.352 1.352 0 00-1.606 1.027c-.059.263-1.544 6.471-10.215 8.843a1.35 1.35 0 00.713 2.605c10.322-2.824 12.072-10.552 12.142-10.88a1.346 1.346 0 00-1.034-1.595z"/>
  </g>
</svg>
