<svg xmlns="http://www.w3.org/2000/svg" class="css-1j8o68f" viewBox="-4 -3 1200 630"><defs><clipPath id="a" clipPathUnits="userSpaceOnUse"><path d="M79.256 45.366c-.1-.605-.52-1.11-1.096-1.32a17.043 17.043 0 00-1.371-.41c.059-11.399-6.398-19.169-6.682-19.502a1.694 1.694 0 00-1.701-.55c-.096.023-.812.21-1.884.62-2.942-4.72-6.604-7.543-6.772-7.671a1.701 1.701 0 00-1.89-.113c-.079.046-.623.373-1.411.95-2.63-3.002-5.361-4.545-5.492-4.618a1.699 1.699 0 00-1.65-.003c-.131.072-2.877 1.613-5.515 4.625-.46-.34-.937-.66-1.427-.956a1.7 1.7 0 00-1.908.132c-.163.127-3.697 2.946-6.613 7.653a17.597 17.597 0 00-1.88-.619 1.697 1.697 0 00-1.688.535c-.264.304-6.291 7.402-6.641 19.411-1.079.261-1.733.495-1.795.517a1.7 1.7 0 00-1.096 1.32c-.094.562-2.169 13.861 7.64 21.748 6.503 5.23 16.181 5.984 20.035 6.066.482 4.714 2.264 10.933 7.99 14.073a1.7 1.7 0 001.634-2.982c-4.271-2.342-5.733-7.207-6.187-11.1 4.02-.112 13.399-.946 19.757-6.059 9.811-7.886 7.737-21.184 7.643-21.747z"/></clipPath><clipPath id="b" clipPathUnits="userSpaceOnUse"><path d="M79.256 45.366c-.1-.605-.52-1.11-1.096-1.32a17.043 17.043 0 00-1.371-.41c.059-11.399-6.398-19.169-6.682-19.502a1.694 1.694 0 00-1.701-.55c-.096.023-.812.21-1.884.62-2.942-4.72-6.604-7.543-6.772-7.671a1.701 1.701 0 00-1.89-.113c-.079.046-.623.373-1.411.95-2.63-3.002-5.361-4.545-5.492-4.618a1.699 1.699 0 00-1.65-.003c-.131.072-2.877 1.613-5.515 4.625-.46-.34-.937-.66-1.427-.956a1.7 1.7 0 00-1.908.132c-.163.127-3.697 2.946-6.613 7.653a17.597 17.597 0 00-1.88-.619 1.697 1.697 0 00-1.688.535c-.264.304-6.291 7.402-6.641 19.411-1.079.261-1.733.495-1.795.517a1.7 1.7 0 00-1.096 1.32c-.094.562-2.169 13.861 7.64 21.748 6.503 5.23 16.181 5.984 20.035 6.066.482 4.714 2.264 10.933 7.99 14.073a1.7 1.7 0 001.634-2.982c-4.271-2.342-5.733-7.207-6.187-11.1 4.02-.112 13.399-.946 19.757-6.059 9.811-7.886 7.737-21.184 7.643-21.747z"/></clipPath><clipPath id="c" clipPathUnits="userSpaceOnUse"><path d="M79.256 45.366c-.1-.605-.52-1.11-1.096-1.32a17.043 17.043 0 00-1.371-.41c.059-11.399-6.398-19.169-6.682-19.502a1.694 1.694 0 00-1.701-.55c-.096.023-.812.21-1.884.62-2.942-4.72-6.604-7.543-6.772-7.671a1.701 1.701 0 00-1.89-.113c-.079.046-.623.373-1.411.95-2.63-3.002-5.361-4.545-5.492-4.618a1.699 1.699 0 00-1.65-.003c-.131.072-2.877 1.613-5.515 4.625-.46-.34-.937-.66-1.427-.956a1.7 1.7 0 00-1.908.132c-.163.127-3.697 2.946-6.613 7.653a17.597 17.597 0 00-1.88-.619 1.697 1.697 0 00-1.688.535c-.264.304-6.291 7.402-6.641 19.411-1.079.261-1.733.495-1.795.517a1.7 1.7 0 00-1.096 1.32c-.094.562-2.169 13.861 7.64 21.748 6.503 5.23 16.181 5.984 20.035 6.066.482 4.714 2.264 10.933 7.99 14.073a1.7 1.7 0 001.634-2.982c-4.271-2.342-5.733-7.207-6.187-11.1 4.02-.112 13.399-.946 19.757-6.059 9.811-7.886 7.737-21.184 7.643-21.747z"/></clipPath><clipPath id="d" clipPathUnits="userSpaceOnUse"><path d="M79.256 45.366c-.1-.605-.52-1.11-1.096-1.32a17.043 17.043 0 00-1.371-.41c.059-11.399-6.398-19.169-6.682-19.502a1.694 1.694 0 00-1.701-.55c-.096.023-.812.21-1.884.62-2.942-4.72-6.604-7.543-6.772-7.671a1.701 1.701 0 00-1.89-.113c-.079.046-.623.373-1.411.95-2.63-3.002-5.361-4.545-5.492-4.618a1.699 1.699 0 00-1.65-.003c-.131.072-2.877 1.613-5.515 4.625-.46-.34-.937-.66-1.427-.956a1.7 1.7 0 00-1.908.132c-.163.127-3.697 2.946-6.613 7.653a17.597 17.597 0 00-1.88-.619 1.697 1.697 0 00-1.688.535c-.264.304-6.291 7.402-6.641 19.411-1.079.261-1.733.495-1.795.517a1.7 1.7 0 00-1.096 1.32c-.094.562-2.169 13.861 7.64 21.748 6.503 5.23 16.181 5.984 20.035 6.066.482 4.714 2.264 10.933 7.99 14.073a1.7 1.7 0 001.634-2.982c-4.271-2.342-5.733-7.207-6.187-11.1 4.02-.112 13.399-.946 19.757-6.059 9.811-7.886 7.737-21.184 7.643-21.747z"/></clipPath><clipPath id="e" clipPathUnits="userSpaceOnUse"><path stroke-width="2.674" d="M208.348 117.856a4.548 4.548 0 00-2.935-3.523 45.748 45.748 0 00-3.671-1.094c.158-30.428-17.133-51.168-17.894-52.057a4.545 4.545 0 00-4.555-1.468c-.257.061-2.174.56-5.045 1.655-7.878-12.6-17.684-20.135-18.134-20.476a4.567 4.567 0 00-5.061-.302c-.212.123-1.668.996-3.779 2.536-7.042-8.013-14.356-12.132-14.706-12.327a4.562 4.562 0 00-4.419-.008c-.35.192-7.704 4.305-14.768 12.345a50.14 50.14 0 00-3.821-2.551 4.564 4.564 0 00-5.11.352c-.436.339-9.9 7.864-17.708 20.428a47.228 47.228 0 00-5.035-1.652 4.553 4.553 0 00-4.52 1.428c-.707.811-16.846 19.758-17.783 51.814-2.89.696-4.64 1.32-4.807 1.38a4.541 4.541 0 00-2.935 3.523c-.252 1.5-5.808 37 20.459 58.052 17.414 13.96 43.33 15.973 53.65 16.192 1.291 12.583 6.063 29.184 21.396 37.565a4.552 4.552 0 006.178-1.799 4.53 4.53 0 00-1.802-6.16c-11.437-6.252-15.352-19.238-16.568-29.63 10.765-.299 35.88-2.525 52.906-16.173 26.272-21.05 20.719-56.547 20.467-58.05z"/></clipPath><clipPath id="f" clipPathUnits="userSpaceOnUse"><path stroke-width="2.674" d="M208.348 117.856a4.548 4.548 0 00-2.935-3.523 45.748 45.748 0 00-3.671-1.094c.158-30.428-17.133-51.168-17.894-52.057a4.545 4.545 0 00-4.555-1.468c-.257.061-2.174.56-5.045 1.655-7.878-12.6-17.684-20.135-18.134-20.476a4.567 4.567 0 00-5.061-.302c-.212.123-1.668.996-3.779 2.536-7.042-8.013-14.356-12.132-14.706-12.327a4.562 4.562 0 00-4.419-.008c-.35.192-7.704 4.305-14.768 12.345a50.14 50.14 0 00-3.821-2.551 4.564 4.564 0 00-5.11.352c-.436.339-9.9 7.864-17.708 20.428a47.228 47.228 0 00-5.035-1.652 4.553 4.553 0 00-4.52 1.428c-.707.811-16.846 19.758-17.783 51.814-2.89.696-4.64 1.32-4.807 1.38a4.541 4.541 0 00-2.935 3.523c-.252 1.5-5.808 37 20.459 58.052 17.414 13.96 43.33 15.973 53.65 16.192 1.291 12.583 6.063 29.184 21.396 37.565a4.552 4.552 0 006.178-1.799 4.53 4.53 0 00-1.802-6.16c-11.437-6.252-15.352-19.238-16.568-29.63 10.765-.299 35.88-2.525 52.906-16.173 26.272-21.05 20.719-56.547 20.467-58.05z"/></clipPath></defs><path d="M386.468 325.674h-25.426l-4.972 14.012h-18.42l27.686-69.159h16.95l27.687 69.16H391.44zm-19.889-15.708h14.352l-7.12-20.115zm66.447 1.469v28.251h-16.95v-28.138c0-18.759 13.786-28.93 31.189-28.93.565 0 1.356 0 2.147.114.79.113 1.695.339 2.486.452v16.385a37.906 37.906 0 00-2.034-.339c-.791-.113-1.47-.226-2.034-.226-2.825 0-5.085.34-7.007.904-3.164 1.13-5.989 3.278-7.006 6.668-.565 1.469-.79 3.164-.79 4.859zm57.52-26.33v15.708h-15.821v10.622c0 8.701 5.763 13.109 14.126 13.109 1.017 0 1.92-.113 2.712-.226.79-.113 1.469-.226 2.26-.34v15.708c-1.017.113-1.808.34-2.373.452-.678.113-1.808.113-3.277.113-17.064 0-30.399-11.64-30.399-28.816v-41.812h16.95v15.482zm9.379-1.921h16.95v56.502h-16.95zm8.475-5.311c-5.763 0-9.831-4.069-9.831-9.832 0-5.876 4.068-9.718 9.831-9.718 5.877 0 9.719 3.842 9.719 9.718 0 5.99-3.73 9.832-9.719 9.832zm64.752 43.167v16.951c-5.763 1.921-11.752 2.486-17.742 2.486-17.515 0-29.946-11.64-29.946-28.929 0-17.968 12.883-28.93 29.946-28.93 5.99 0 11.979.566 17.742 2.487v16.95c-4.972-2.599-11.187-3.277-16.725-3.277-3.729 0-8.249.791-10.848 3.73-2.373 2.373-3.164 5.763-3.164 8.927 0 1.808.226 3.503.79 4.972.453 1.582 1.244 2.938 2.374 4.068 2.486 3.052 7.12 3.843 10.848 3.843 4.973 0 12.318-.905 16.725-3.278zm27.234-9.605v28.251h-16.95v-79.103h16.95v27.799c3.956-4.181 8.928-5.763 14.578-5.763 16.047 0 26.104 13.786 26.104 28.816v28.251h-16.95v-28.251c0-7.684-3.052-13.109-11.301-13.109-8.136 0-12.43 5.199-12.43 13.109zm77.748 13.109c8.25 0 12.995-4.86 12.995-13.109 0-8.25-4.746-13.109-12.995-13.109-8.25 0-12.996 4.86-12.996 13.109 0 8.25 4.746 13.109 12.996 13.109zm0 15.707c-17.403 0-29.947-11.526-29.947-28.816 0-17.855 12.996-28.816 29.947-28.816 17.516 0 29.946 11.526 29.946 28.816 0 17.742-13.108 28.816-29.946 28.816zm70.74-57.067h16.952v5.65c0 8.588-2.939 16.838-9.267 22.714l14.917 28.138H750.57l-17.516-33.45v33.45h-16.95v-79.103h16.95v42.603h2.6c9.153 0 13.22-6.103 13.22-14.465zm41.36 21.47a27.665 27.665 0 005.65 1.244 34.82 34.82 0 005.764.452c2.26 0 8.023-.452 8.023-3.73 0-3.503-4.972-3.616-7.458-3.616-4.972 0-9.266 1.13-11.978 5.65zm31.981 17.403v15.821c-6.328 1.47-12.657 2.486-19.21 2.486-17.969 0-31.303-10.51-31.303-28.703 0-17.968 12.882-29.042 29.946-29.042 11.64 0 25.087 5.537 25.087 18.759 0 13.108-14.238 17.967-25.2 17.967-4.181 0-8.362-1.13-12.204-2.712 2.26 6.328 9.04 7.346 14.916 7.346 3.051 0 6.103-.113 9.154-.566 2.825-.226 6.102-.565 8.814-1.356zm55.485-35.596v16.499h15.821c5.198 0 8.25-3.052 8.25-8.25s-3.052-8.25-8.25-8.25zm25.653 27.686c3.164 4.294 6.328 8.588 9.605 12.77 3.164 4.18 6.328 8.475 9.492 12.77h-20.68c-4.068-5.425-8.023-10.85-11.978-16.274a6067.683 6067.683 0 00-12.092-16.16v32.433h-16.95v-69.159h32.771c12.883 0 23.844 9.832 23.844 22.827 0 9.154-5.65 17.177-14.012 20.793zm65.203-30.963h16.951v28.251c0 17.29-11.978 28.816-28.816 28.816-17.29 0-28.816-12.091-28.816-28.816v-28.251h16.95v28.251c0 7.571 3.843 13.109 11.866 13.109 8.25 0 11.865-5.425 11.865-13.109zm45.202 28.251c0 8.362 4.182 13.109 12.657 13.109 2.373 0 4.52-.34 6.215-1.13 3.164-1.244 5.311-3.617 6.441-6.894.452-1.582.678-3.277.678-5.085 0-1.808-.226-3.503-.678-5.085-1.243-3.503-3.164-5.424-6.44-7.007-1.696-.678-3.843-1.017-6.216-1.017-8.475 0-12.657 4.747-12.657 13.109zm-16.95-50.852h16.95v28.251c3.843-4.407 9.04-6.215 14.804-6.215 16.499 0 28.138 13.221 28.138 29.042 0 17.855-13.221 28.59-30.06 28.59-17.515 0-29.832-11.526-29.832-28.816zm107.241 50.852v-28.251H1121v53.564c0 17.968-12.883 28.93-29.946 28.93-5.99 0-11.979-.566-17.742-2.487v-17.403c4.86 2.6 11.413 3.504 16.838 3.504 6.102 0 10.961-1.808 13.221-7.685a18.21 18.21 0 00.678-4.972v-2.599c-3.842 4.294-8.814 6.215-14.464 6.215-16.047 0-26.218-13.786-26.218-28.816v-28.251h16.951v28.251c0 7.684 3.051 13.109 11.3 13.109 8.024 0 12.431-5.312 12.431-13.109z"/><g transform="matrix(5.92488 0 0 5.92488 -119.267 177.058)"><path fill="none" d="M1.452 1.213h95.599v95.905H1.452z" clip-path="url(#a)" transform="matrix(.67793 0 0 .67577 18.217 -11.013)"/><path d="M40.038 63.557c-8.653-2.367-10.15-8.553-10.216-8.841a1.35 1.35 0 00-2.64.566c.069.328 1.819 8.056 12.143 10.88a1.35 1.35 0 00.713-2.605z" clip-path="url(#b)" transform="matrix(.67793 0 0 .67577 18.217 -11.013)"/><path d="M79.256 45.366c-.1-.605-.52-1.11-1.096-1.32a17.042 17.042 0 00-1.371-.41c.059-11.399-6.398-19.169-6.682-19.502a1.694 1.694 0 00-1.701-.55c-.096.023-.812.21-1.884.62-2.942-4.72-6.604-7.543-6.772-7.671a1.701 1.701 0 00-1.89-.113c-.079.046-.623.373-1.411.95-2.63-3.002-5.361-4.545-5.492-4.618a1.699 1.699 0 00-1.65-.003c-.131.072-2.877 1.613-5.515 4.625-.46-.34-.937-.66-1.427-.956a1.7 1.7 0 00-1.908.132c-.163.127-3.697 2.946-6.613 7.653a17.597 17.597 0 00-1.88-.619 1.697 1.697 0 00-1.688.535c-.264.304-6.291 7.402-6.641 19.411-1.079.261-1.733.495-1.795.517a1.7 1.7 0 00-1.096 1.32c-.094.562-2.169 13.861 7.64 21.748 6.503 5.23 16.181 5.984 20.035 6.066.482 4.714 2.264 10.933 7.99 14.073a1.7 1.7 0 001.634-2.982c-4.271-2.342-5.733-7.207-6.187-11.1 4.02-.112 13.399-.946 19.757-6.059 9.811-7.886 7.737-21.184 7.643-21.747zm-5.855-2.38a27.37 27.37 0 00-3.48-.227c-2.621 0-5.113.407-7.423 1.187-.478-3.958-2.062-7.216-3.916-9.771 2.366-3.172 5.427-5.078 7.658-6.142.141-.035.28-.081.413-.154.06-.032.109-.074.163-.112.524-.232.989-.415 1.364-.55 1.51 2.138 5.074 7.994 5.221 15.769zM50.133 30.694c2.295 1.559 8.574 6.563 9.067 14.697a20.116 20.116 0 00-3.299 2.238c-2.977 2.499-4.792 6.062-5.901 9.541-1.108-3.478-2.924-7.042-5.9-9.541a20.2 20.2 0 00-3.04-2.107c.433-8.209 6.773-13.264 9.073-14.828zm13.279-5.044c-2.228 1.225-4.838 3.104-7.059 5.867a27.147 27.147 0 00-4.211-3.574c1.426-3.905 4.787-6.723 6.46-7.933a28.95 28.95 0 014.81 5.64zm-13.284-9.4c.87.599 2.305 1.713 3.716 3.312-1.279 1.23-2.633 2.804-3.713 4.687-1.083-1.883-2.443-3.458-3.729-4.688a20.938 20.938 0 013.726-3.311zm-8.478 3.771c1.686 1.209 5.043 4.009 6.472 7.92a26.893 26.893 0 00-4.16 3.509c-2.21-2.727-4.796-4.587-7.007-5.802a30.173 30.173 0 014.695-5.627zm-9.458 7.193c.366.131.819.308 1.328.531.063.047.125.095.196.134.145.079.297.127.45.161 2.204 1.051 5.205 2.93 7.56 6.055-1.886 2.581-3.504 5.89-3.972 9.933-2.379-.836-4.959-1.269-7.676-1.269-1.087 0-2.104.069-3.033.173.411-8.12 3.722-13.678 5.147-15.718zM23.99 46.946a24.188 24.188 0 016.089-.787c4.632 0 8.614 1.371 11.835 4.074 5.254 4.411 6.209 13.456 6.382 16.856-.034.796-.03 1.307-.028 1.41l.011.471c-.01.269-.016.538-.018.807-5.731-.146-13.126-1.597-17.745-5.313-6.814-5.478-6.76-14.495-6.526-17.518zm45.494 17.519c-4.63 3.724-12.045 5.174-17.78 5.314l.029-1.291a15.22 15.22 0 000-.394c.007-.468-.017-.896-.011-1.313.216-3.624 1.268-12.269 6.365-16.548 3.221-2.704 7.202-4.074 11.834-4.074 2.652 0 4.878.468 6.09.789.233 3.03.284 12.041-6.527 17.517z" clip-path="url(#c)" transform="matrix(.67793 0 0 .67577 18.217 -11.013)"/><path d="M71.784 53.687a1.352 1.352 0 00-1.606 1.027c-.059.263-1.544 6.471-10.215 8.843a1.35 1.35 0 00.713 2.605c10.322-2.824 12.072-10.552 12.142-10.88a1.346 1.346 0 00-1.034-1.595z" clip-path="url(#d)" transform="matrix(.67793 0 0 .67577 18.217 -11.013)"/><path fill="none" d="M.32 128.169V.43h255.477v255.478H.32zm152.203 100.933c1.162-1 1.527-1.811 1.527-3.396 0-2.229-.569-2.877-6.063-6.911-5.065-3.719-9.08-10.565-11.304-19.28-1.895-7.422-2.07-7.111 4.26-7.543 29.995-2.045 51.418-13.779 61.385-33.62 4.852-9.659 6.641-18.094 6.641-31.316 0-10.88-.301-11.806-4.272-13.13l-2.378-.792-.628-6.702c-.76-8.11-1.93-13.575-4.481-20.915-3.65-10.506-11.465-24.092-14.774-25.685-1.48-.712-3.97-.444-7.13.769-.568.218-1.623-.787-3.336-3.177-3.55-4.953-8.957-10.95-13.113-14.546-4.1-3.548-5.688-3.85-9.162-1.748l-2.194 1.328-3.85-3.565c-4.338-4.016-11.598-9.071-13.028-9.071-2.355 0-8.433 4.184-14.064 9.682l-3.186 3.11-2.404-1.408c-3.093-1.813-4.684-1.777-7.35.167-3.094 2.257-9.671 9.345-13.596 14.652-1.852 2.505-3.443 4.636-3.537 4.736-.094.1-1.502-.233-3.129-.741-2.261-.706-3.314-.786-4.47-.34-2.058.796-5.805 6.04-9.442 13.218-6.005 11.847-8.804 21.805-10.117 35.98l-.367 3.965-2.368.596c-1.302.328-2.9 1.038-3.55 1.577-3.197 2.65-3.078 19.031.23 31.738 4.653 17.879 16.579 31.146 34.473 38.353 9.348 3.765 20.625 6.212 31.734 6.887l5.983.363.355 2.552c2.142 15.386 9.664 28.35 19.816 34.155 2.994 1.712 4.947 1.728 6.889.058z" clip-path="url(#e)" transform="matrix(.25316 0 0 .25316 19.2 -10.193)"/><path fill="none" d="M.32 128.169V.43h255.477v255.478H.32zm152.203 100.933c1.162-1 1.527-1.811 1.527-3.396 0-2.229-.569-2.877-6.063-6.911-5.065-3.719-9.08-10.565-11.304-19.28-1.895-7.422-2.07-7.111 4.26-7.543 29.995-2.045 51.418-13.779 61.385-33.62 4.852-9.659 6.641-18.094 6.641-31.316 0-10.88-.301-11.806-4.272-13.13l-2.378-.792-.628-6.702c-.76-8.11-1.93-13.575-4.481-20.915-3.65-10.506-11.465-24.092-14.774-25.685-1.48-.712-3.97-.444-7.13.769-.568.218-1.623-.787-3.336-3.177-3.55-4.953-8.957-10.95-13.113-14.546-4.1-3.548-5.688-3.85-9.162-1.748l-2.194 1.328-3.85-3.565c-4.338-4.016-11.598-9.071-13.028-9.071-2.355 0-8.433 4.184-14.064 9.682l-3.186 3.11-2.404-1.408c-3.093-1.813-4.684-1.777-7.35.167-3.094 2.257-9.671 9.345-13.596 14.652-1.852 2.505-3.443 4.636-3.537 4.736-.094.1-1.502-.233-3.129-.741-2.261-.706-3.314-.786-4.47-.34-2.058.796-5.805 6.04-9.442 13.218-6.005 11.847-8.804 21.805-10.117 35.98l-.367 3.965-2.368.596c-1.302.328-2.9 1.038-3.55 1.577-3.197 2.65-3.078 19.031.23 31.738 4.653 17.879 16.579 31.146 34.473 38.353 9.348 3.765 20.625 6.212 31.734 6.887l5.983.363.355 2.552c2.142 15.386 9.664 28.35 19.816 34.155 2.994 1.712 4.947 1.728 6.889.058z" clip-path="url(#f)" transform="matrix(.25316 0 0 .25316 19.2 -10.193)"/></g></svg>