<svg width="400" height="400" xmlns="http://www.w3.org/2000/svg" xmlns:xlink="http://www.w3.org/1999/xlink">
  <path fill="none" d="M-1-1h402v402H-1z"/>
  <g transform="translate(-2134.96769927 -1475.65000201) scale(.88704)" stroke="null">
    <path fill="#90BC42" d="M2632.31273 1692.074594v37.95c-27.92 14.64-42.1 79.41-42.1 79.41-10.98-41.09-27.74-61.12-38.94-70.42 22.43-27.73 50.54-46.94 81.04-46.94z"/>
    <path fill="#9AD14B" d="M2713.35373 1739.014594c-11.2 9.3-27.97 29.33-38.95 70.42 0 0-14.18-64.77-42.09-79.41v-37.95c30.49 0 58.6 19.21 81.04 46.94z"/>
    <path fill="#9AD14B" d="M2743.51273 1818.264594c-3.46 1.83-7.08 3.96-10.77 6.43-16.4 10.95-34.07 28.55-44.57 56.39-.18.12-.36.25-.54.37-1.98-6.23-20.6-62.13-55.32-75.33-19.33 7.35-33.67 27.92-42.92 45.79-7.38 14.24-11.53 26.77-12.41 29.54-.18-.12-.36-.25-.54-.37-10.49-27.84-28.16-45.44-44.56-56.39-3.69-2.47-7.31-4.6-10.77-6.43-15.52-43.19 18.44-86.67 18.44-86.67s4.8 1.66 11.72 7.42c11.2 9.3 27.96 29.33 38.94 70.42 0 0 14.18-64.77 42.1-79.41 27.91 14.64 42.09 79.41 42.09 79.41 10.98-41.09 27.75-61.12 38.95-70.42 6.92-5.76 11.72-7.42 11.72-7.42s33.96 43.481 18.44 86.67z"/>
    <path fill="#9AD14B" d="M2764.50273 1861.095594v.01c-1.75 6.21-3.91 12.67-6.58 19.21-21.33 9.15-50.22 27.68-65.18 63.75 0 0-20.37-59.92-60.43-73.46-15.96 5.39-28.79 18.14-38.44 31.53-14.62 20.23-21.99 41.93-21.99 41.93-14.96-36.08-43.86-54.61-65.19-63.76-2.66-6.53-4.82-12.98-6.57-19.18v-.01c-8.34-29.58-7.35-53.49-7.35-53.49s12.5 2.24 28.34 10.64c3.46 1.83 7.08 3.96 10.77 6.43 16.4 10.95 34.07 28.55 44.56 56.39.13.31.24.63.36.94 0 0 .06-.2.18-.57.66-2.09 3.19-9.75 7.57-19.51 8.69-19.38 24.66-47.04 47.76-55.82 34.72 13.2 53.34 69.1 55.32 75.33.12.37.18.57.18.57.12-.31.23-.63.36-.94 10.5-27.84 28.17-45.44 44.57-56.39 3.69-2.47 7.31-4.6 10.77-6.43 15.83-8.4 28.33-10.64 28.33-10.64s.991 23.909-7.34 53.47zm-99.19 162.769v62.12h-66v-62.12c21.741 4.63 44.25 4.63 66 0z"/>
    <path fill="#90BC42" d="M2632.31473 2023.864594v62.12h-33.002v-62.12c10.871 4.63 22.127 4.63 33.002 0z"/>
    <path fill="#9AD14B" d="M2697.77273 2013.184594c-10.48 4.76-21.37 8.32-32.46 10.68-10.7 2.27-21.57 3.43-32.45 3.47-11.25.04-22.5-1.12-33.55-3.47-11.09-2.36-21.98-5.92-32.46-10.68-91.1-41.43-86.47-141.12-86.47-141.12s11.28 1.8 26.31 8.24c21.33 9.15 50.23 27.68 65.19 63.76 0 0 8.06-23.72 24.02-44.69 9.4-12.35 21.55-23.75 36.41-28.77 40.06 13.54 60.43 73.46 60.43 73.46 14.96-36.07 43.85-54.6 65.18-63.75 15.03-6.45 26.31-8.25 26.31-8.25s4.641 99.69-86.46 141.12z"/>
    <path stroke="#333" fill="none" stroke-width="15" stroke-linejoin="round" stroke-miterlimit="10" d="M2747.52273 1797.244594v.02m-230.42-.03v-.01"/>
    <path fill="#90BC42" d="M2632.86373 2027.334594c-11.25.04-22.5-1.12-33.55-3.47-11.09-2.36-21.98-5.92-32.46-10.68-91.1-41.43-86.47-141.12-86.47-141.12s11.28 1.8 26.31 8.24c21.33 9.15 50.23 27.68 65.19 63.76 0 0 8.06-23.72 24.02-44.69l1.48 4.14s-22.5 76.49 34.49 122.99c.34.28.669.551.99.83z"/>
    <path fill="#90BC42" d="M2593.87373 1902.135594c-14.62 20.23-21.99 41.93-21.99 41.93-14.96-36.08-43.86-54.61-65.19-63.76-2.66-6.53-4.82-12.98-6.57-19.18v-.01c-8.34-29.58-7.35-53.49-7.35-53.49s12.5 2.24 28.34 10.64c3.46 1.83 7.08 3.96 10.77 6.43 16.4 10.95 34.07 28.55 44.56 56.39.13.31.24.63.36.94 0 0 .06-.2.18-.57.66-2.09 3.19-9.75 7.57-19.51l.83 1.07s-3 22.5 7.5 36c.599.759.919 1.819.99 3.12z"/>
    <path fill="#FFF" d="M2732.12573 1966.356594c-1.66 0-3.331-.549-4.721-1.676-3.217-2.61-3.708-7.333-1.099-10.55 8.226-10.138 14.787-22.071 19.502-35.471 1.611-4.578 3.011-9.363 4.159-14.225.952-4.032 4.992-6.532 9.023-5.574 4.031.952 6.527 4.992 5.574 9.023-1.271 5.377-2.82 10.677-4.606 15.754-5.289 15.027-12.691 28.466-22.004 39.943-1.481 1.829-3.645 2.776-5.828 2.776z"/>
    <path fill="#90BC42" d="M2589.39373 1851.914594c-7.38 14.24-11.53 26.77-12.41 29.54-.18-.12-.36-.25-.54-.37-10.49-27.84-28.16-45.44-44.56-56.39-3.69-2.47-7.31-4.6-10.77-6.43-15.52-43.19 18.44-86.67 18.44-86.67s4.9 81.4 48.83 119.42c.349.3.679.601 1.01.9z"/>
    <path fill="#FFF" d="M2741.64173 1874.769594c-1.052 0-2.12-.223-3.139-.692-3.761-1.736-5.402-6.191-3.666-9.953 2.969-6.432 6.382-22.114 7.446-27.614.787-4.067 4.722-6.729 8.788-5.938 4.067.787 6.726 4.722 5.938 8.788-.427 2.207-4.296 21.826-8.554 31.052-1.265 2.741-3.978 4.357-6.813 4.357zm-14.658-62.668c-.072 0-.145-.001-.218-.003-4.141-.118-7.401-3.57-7.283-7.711.193-6.782-.656-13.93-2.526-21.241-1.026-4.013 1.395-8.098 5.407-9.124 4.018-1.031 8.099 1.396 9.124 5.407 2.217 8.665 3.223 17.206 2.989 25.386-.116 4.068-3.45 7.286-7.493 7.286zm-46.666-66.667c-2.243 0-4.462-1.002-5.939-2.914-9.935-12.857-23.604-18.988-23.741-19.049-3.782-1.669-5.51-6.089-3.852-9.875 1.659-3.787 6.059-5.522 9.851-3.873.698.304 17.243 7.618 29.611 23.625 2.533 3.278 1.929 7.988-1.349 10.521-1.365 1.055-2.979 1.565-4.581 1.565z"/>
    <circle fill="#FFF" r="7.5" cy="1761.882594" cx="2717.11273"/>
    <path fill="#333" d="M2791.72773 1871.715594c-.1-2.132-1.103-4.12-2.757-5.468-1.655-1.347-3.805-1.925-5.914-1.591-.376.06-5.239.859-12.708 3.129 9.996-32.325 9.043-59.175 8.989-60.47-.089-2.164-1.11-4.184-2.8-5.539s-3.886-1.913-6.014-1.533c-.461.082-6.822 1.259-16.132 4.833 5.432-40.55-22.086-76.404-23.407-78.096-1.973-2.525-5.333-3.518-8.359-2.473-.558.192-3.592 1.321-8.076 4.273-25.189-28.949-53.505-44.204-82.237-44.204-28.749 0-57.071 15.262-82.253 44.222-4.587-3.034-7.641-4.147-8.058-4.291-3.023-1.043-6.386-.054-8.359 2.473-1.321 1.692-28.841 37.549-23.407 78.1-9.318-3.577-15.681-4.754-16.142-4.836-2.127-.38-4.325.178-6.014 1.533s-2.711 3.375-2.8 5.539c-.054 1.295-1.008 28.144 8.992 60.47-7.47-2.27-12.332-3.069-12.708-3.129-2.112-.339-4.26.243-5.914 1.591s-2.657 3.336-2.757 5.468c-.05 1.076-1.104 26.699 9.461 57.786 9.809 28.865 31.892 67.999 81.392 90.506 9.115 4.145 18.511 7.41 28.068 9.821v56.159c0 4.143 3.357 7.5 7.5 7.5h66c4.143 0 7.5-3.357 7.5-7.5v-56.162c9.556-2.411 18.951-5.675 28.062-9.818 49.5-22.507 71.583-61.641 81.392-90.506 10.563-31.088 9.509-56.711 9.46-57.787zm-88.749-133.374c-.675.675-1.358 1.379-2.05 2.117-10.391 11.091-19.108 25.594-26.044 43.292-1.198-3.574-2.557-7.369-4.073-11.256-8.985-23.022-19.399-38.665-30.998-46.649v-25.83c16.687 1.923 39.165 10.838 63.165 38.326zm-78.166-38.326v25.829c-11.603 7.984-22.02 23.628-31.007 46.65-1.522 3.9-2.884 7.707-4.086 11.291-8.786-22.327-19.225-36.527-28.102-45.413 24.003-27.513 46.496-36.434 63.195-38.357zm-93.492 61.893c3.508-8.802 7.674-15.998 10.572-20.514 9.085 6.087 28.786 24.008 41.075 69.978.878 3.287 3.855 5.563 7.243 5.563.058 0 .114-.001.171-.002 3.458-.078 6.415-2.512 7.157-5.891 3.53-16.08 16.315-58.39 34.772-72.161 18.451 13.771 31.234 56.081 34.765 72.158.739 3.381 3.695 5.815 7.155 5.895 3.446.068 6.523-2.219 7.417-5.562 12.304-46.029 32.046-63.938 41.08-69.988 7.563 11.78 23.777 41.89 14.597 71.713-2.849 1.598-5.777 3.374-8.748 5.362-17.098 11.415-30.546 26.15-40.136 43.943-2.506-5.865-5.729-12.707-9.658-19.68-12.824-22.76-27.563-37.432-43.807-43.607-1.717-.652-3.613-.652-5.33 0-16.248 6.176-30.989 20.848-43.815 43.607-3.929 6.973-7.151 13.813-9.657 19.675-9.585-17.789-23.029-32.522-40.121-43.935-2.971-1.988-5.901-3.764-8.75-5.362-4.744-15.363-3.403-32.568 4.018-51.192zm-30.858 55.609c6.831 2.292 16.796 6.417 27.257 13.416 19.338 12.911 33.37 30.675 41.705 52.797.033.086.066.172.103.257.042.102.079.205.117.308l.164.438c1.156 2.986 4.089 4.909 7.284 4.782 3.201-.122 5.973-2.271 6.896-5.338l.143-.448c6.643-20.896 24.056-58.159 48.183-69.461 24.119 11.302 41.531 48.566 48.187 69.504l.125.394c.915 3.075 3.684 5.228 6.889 5.355.102.004.201.006.302.006 3.087 0 5.872-1.896 6.993-4.794l.164-.438c.038-.103.075-.206.117-.308.035-.084.069-.169.102-.255 8.345-22.124 22.38-39.889 41.724-52.804 10.458-7.001 20.426-11.126 27.252-13.415-.638 12.035-3.098 33.944-12.079 57.171-2.437 1.107-4.951 2.327-7.517 3.671-21.993 11.52-39.443 27.836-51.209 47.726-2.439-5.175-5.569-11.238-9.397-17.557-14.344-23.678-30.915-38.825-49.252-45.024-1.557-.525-3.246-.525-4.803 0-18.338 6.199-34.908 21.347-49.253 45.024-3.827 6.316-6.958 12.382-9.397 17.557-11.765-19.89-29.216-36.206-51.208-47.726-2.566-1.344-5.08-2.564-7.517-3.671-8.954-23.149-11.424-45.105-12.075-57.167zm157.35 260.969h-51v-45.6c8.447 1.316 16.971 1.982 25.497 1.981 8.526 0 17.053-.667 25.503-1.984v45.603zm110.077-153.301c-12.936 37.647-37.572 64.956-73.224 81.167-39.627 18.021-85.083 18.02-124.712 0-35.652-16.211-60.288-43.52-73.224-81.167-6.137-17.857-8.063-33.976-8.643-43.573 18.017 5.2 58.676 21.454 76.864 65.319 1.195 2.885 4.07 4.745 7.173 4.624 3.12-.103 5.851-2.126 6.855-5.082.049-.143 4.939-14.387 14.505-30.176 8.194-13.525 21.456-30.739 38.827-37.7 34.502 13.785 53.14 67.329 53.327 67.876 1.004 2.956 3.735 4.979 6.855 5.082 3.112.122 5.978-1.739 7.173-4.623 18.117-43.694 58.83-60.042 76.862-65.293-.58 9.604-2.508 25.707-8.638 43.546z"/>
  </g>
  <defs>
    <linearGradient y2="141.7533" x2="132.27631" y1="215.5488" x1="174.0737" gradientUnits="userSpaceOnUse" id="a">
      <stop stop-color="#FB7655" offset="0"/>
      <stop stop-color="#FB7655" offset="0"/>
      <stop stop-color="#E42B1E" offset=".41"/>
      <stop stop-color="#900" offset=".99"/>
      <stop stop-color="#900" offset="1"/>
    </linearGradient>
    <linearGradient y2=".19288" x2=".017462" y1=".608903" x1="1.16651" id="c">
      <stop stop-color="#871101" offset="0"/>
      <stop stop-color="#871101" offset="0"/>
      <stop stop-color="#911209" offset=".99"/>
      <stop stop-color="#911209" offset="1"/>
    </linearGradient>
    <linearGradient y2=".078287" x2=".389781" y1="2.193271" x1=".757744" id="d">
      <stop stop-color="#871101" offset="0"/>
      <stop stop-color="#871101" offset="0"/>
      <stop stop-color="#911209" offset=".99"/>
      <stop stop-color="#911209" offset="1"/>
    </linearGradient>
    <linearGradient y2=".791354" x2=".66483" y1=".072345" x1=".500124" id="e">
      <stop stop-color="#FFF" offset="0"/>
      <stop stop-color="#FFF" offset="0"/>
      <stop stop-color="#E57252" offset=".23"/>
      <stop stop-color="#DE3B20" offset=".46"/>
      <stop stop-color="#A60003" offset=".99"/>
      <stop stop-color="#A60003" offset="1"/>
    </linearGradient>
    <linearGradient y2=".830469" x2=".499323" y1=".163479" x1=".461742" id="f">
      <stop stop-color="#FFF" offset="0"/>
      <stop stop-color="#FFF" offset="0"/>
      <stop stop-color="#E4714E" offset=".23"/>
      <stop stop-color="#BE1A0D" offset=".56"/>
      <stop stop-color="#A80D00" offset=".99"/>
      <stop stop-color="#A80D00" offset="1"/>
    </linearGradient>
    <linearGradient y2=".924776" x2=".495282" y1=".155936" x1=".369654" id="g">
      <stop stop-color="#FFF" offset="0"/>
      <stop stop-color="#FFF" offset="0"/>
      <stop stop-color="#E46342" offset=".18"/>
      <stop stop-color="#C82410" offset=".4"/>
      <stop stop-color="#A80D00" offset=".99"/>
      <stop stop-color="#A80D00" offset="1"/>
    </linearGradient>
    <linearGradient y2="-.467168" x2=".857637" y1=".583457" x1=".136086" id="h">
      <stop stop-color="#FFF" offset="0"/>
      <stop stop-color="#FFF" offset="0"/>
      <stop stop-color="#C81F11" offset=".54"/>
      <stop stop-color="#BF0905" offset=".99"/>
      <stop stop-color="#BF0905" offset="1"/>
    </linearGradient>
    <linearGradient y2=".790558" x2=".507445" y1=".211346" x1=".276242" id="i">
      <stop stop-color="#FFF" offset="0"/>
      <stop stop-color="#FFF" offset="0"/>
      <stop stop-color="#DE4024" offset=".31"/>
      <stop stop-color="#BF190B" offset=".99"/>
      <stop stop-color="#BF190B" offset="1"/>
    </linearGradient>
    <linearGradient y2="-.063421" x2="1.042415" y1="1.222819" x1="-.206671" id="j">
      <stop stop-color="#BD0012" offset="0"/>
      <stop stop-color="#BD0012" offset="0"/>
      <stop stop-color="#FFF" offset=".07"/>
      <stop stop-color="#FFF" offset=".17"/>
      <stop stop-color="#C82F1C" offset=".27"/>
      <stop stop-color="#820C01" offset=".33"/>
      <stop stop-color="#A31601" offset=".46"/>
      <stop stop-color="#B31301" offset=".72"/>
      <stop stop-color="#E82609" offset=".99"/>
      <stop stop-color="#E82609" offset="1"/>
    </linearGradient>
    <linearGradient y2=".501276" x2=".119637" y1=".65205" x1=".58792" id="k">
      <stop stop-color="#8C0C01" offset="0"/>
      <stop stop-color="#8C0C01" offset="0"/>
      <stop stop-color="#990C00" offset=".54"/>
      <stop stop-color="#A80D0E" offset=".99"/>
      <stop stop-color="#A80D0E" offset="1"/>
    </linearGradient>
    <linearGradient y2=".178877" x2=".230883" y1=".627538" x1=".793195" id="l">
      <stop stop-color="#7E110B" offset="0"/>
      <stop stop-color="#7E110B" offset="0"/>
      <stop stop-color="#9E0C00" offset=".99"/>
      <stop stop-color="#9E0C00" offset="1"/>
    </linearGradient>
    <linearGradient y2=".39704" x2=".598415" y1=".741224" x1=".9288" id="m">
      <stop stop-color="#79130D" offset="0"/>
      <stop stop-color="#79130D" offset="0"/>
      <stop stop-color="#9E120B" offset=".99"/>
      <stop stop-color="#9E120B" offset="1"/>
    </linearGradient>
    <radialGradient gradientUnits="userSpaceOnUse" r="50.357601" cy="79.388199" cx="143.8315" id="n">
      <stop stop-color="#A80D00" offset="0"/>
      <stop stop-color="#A80D00" offset="0"/>
      <stop stop-color="#7E0E08" offset=".99"/>
      <stop stop-color="#7E0E08" offset="1"/>
    </radialGradient>
    <radialGradient gradientUnits="userSpaceOnUse" r="66.943703" cy="145.75101" cx="74.0923" id="o">
      <stop stop-color="#A30C00" offset="0"/>
      <stop stop-color="#A30C00" offset="0"/>
      <stop stop-color="#800E08" offset=".99"/>
      <stop stop-color="#800E08" offset="1"/>
    </radialGradient>
    <linearGradient y2=".119933" x2=".031048" y1="1.017166" x1=".565702" id="p">
      <stop stop-color="#8B2114" offset="0"/>
      <stop stop-color="#8B2114" offset="0"/>
      <stop stop-color="#9E100A" offset=".43"/>
      <stop stop-color="#B3100C" offset=".99"/>
      <stop stop-color="#B3100C" offset="1"/>
    </linearGradient>
    <linearGradient y2="1.006936" x2=".924708" y1=".35599" x1=".308699" id="q">
      <stop stop-color="#B31000" offset="0"/>
      <stop stop-color="#B31000" offset="0"/>
      <stop stop-color="#910F08" offset=".44"/>
      <stop stop-color="#791C12" offset=".99"/>
      <stop stop-color="#791C12" offset="1"/>
    </linearGradient>
    <linearGradient xlink:href="#a" id="b" x1=".847504" y1="1.113993" x2=".582544" y2=".645837"/>
  </defs>
  <g stroke="null" fill-rule="evenodd" clip-rule="evenodd">
    <path fill="url(#b)" d="M318.54015094 346.87307788l-58.0803214 34.48776196 75.20301964-5.10306513 5.7921374-75.8304712z"/>
    <path fill="url(#c)" d="M335.78609056 376.20587632l-6.46370259-44.61275776-17.60639125 23.2485423z"/>
    <path fill="url(#d)" d="M335.87334906 376.20587632l-47.35403084-3.71727427-27.80788527 8.7752224z"/>
    <path fill="url(#e)" d="M260.77817428 381.27358135l11.82965038-38.75446721-26.0314033 5.56620639z"/>
    <path fill="url(#f)" d="M311.71142966 354.97002288L300.8264684 312.3339711l-31.15038394 29.19935037z"/>
    <path fill="url(#g)" d="M338.98534967 312.9346777l-29.44579854-24.04950749-8.19963462 26.5089031z"/>
    <path fill="url(#h)" d="M325.2148724 280.3107254l-17.31832058 9.57051336-10.92599557-9.69887539z"/>
    <path fill="url(#i)" d="M239.72713102 361.08510667l7.25489358-13.23135677-5.86860102-15.76261436z"/>
    <path fill="#fff" d="M240.723204 331.593105l5.904559 16.748409 25.656591-5.756175 29.291745-27.222583 8.266382-26.256802-13.016214-9.190574-22.129259 8.281785c-6.972 6.484746-20.501141 19.315608-20.988909 19.556925-.482633.246451-8.933854 16.219566-12.984895 23.839014z"/>
    <path fill="url(#j)" d="M261.455907 301.505528c15.110536-14.982176 34.590445-23.833879 42.06613-16.291447 7.471064 7.542432-.451827 25.872236-15.562363 40.849277s-34.349128 24.316513-41.819678 16.774081c-7.475685-7.537297.205376-26.354869 15.315912-41.331911z"/>
    <path fill="url(#k)" d="M260.778166 381.258145l11.737236-38.877668 38.980356 12.522799c-14.093925 13.215943-29.769244 24.388394-50.717592 26.354869z"/>
    <path fill="url(#l)" d="M301.627443 315.286254l10.006943 39.637559c11.773177-12.379036 22.339769-25.687397 27.51473-42.14828l-37.521673 2.510721z"/>
    <path fill="url(#m)" d="M339.046942 312.975775c4.004831-12.086375 4.929023-29.42524-13.955809-32.644508l-15.495616 8.559043 29.451425 24.085465z"/>
    <path fill="#9e1209" d="M239.727131 360.910522c.554515 19.947653 14.946235 20.244935 21.076707 20.420018l-14.160672-33.071176-6.916035 12.651159z"/>
    <path fill="url(#n)" d="M301.683408 315.347867c9.046811 5.560554 27.279574 16.727871 27.649251 16.933247.574539.323467 7.860765-12.286616 9.514041-19.413162l-37.163292 2.479915z"/>
    <path fill="url(#o)" d="M272.499999 342.380477l15.690723 30.272416c9.277859-5.031711 16.543033-11.162183 23.197214-17.729079l-38.887937-12.543336z"/>
    <path fill="url(#p)" d="M246.581553 348.300439l-2.223195 26.47296c4.194804 5.729989 9.965868 6.228026 16.019324 5.781333-4.379642-10.900329-13.128658-32.695852-13.79613-32.254293z"/>
    <path fill="url(#q)" d="M309.503611 288.957057l31.170935 4.374508c-1.663545-7.04953-6.772272-11.598607-15.480212-13.020835l-15.690723 8.646328z"/>
  </g>
</svg>
